<svg xmlns="http://www.w3.org/2000/svg" id="Layer_1" viewBox="0 0 285 607.6"><style>.st0{fill:#2F4666;} .st1{fill:#40A529;} .st2{fill:#808184;} .st3{fill:#A6640B;} .st4{fill:#05B9E4;} .st5{fill:#F6921E;} .st6{fill:#C61D23;} .st7{fill:#782B8F;} .st8{fill:#FFFFFF;} .st9{fill:#929497;} .st10{clip-path:url(#SVGID_4_);}</style><path d="M76.9-.6h191.7v607.1H76.9zM11.3 289.6h30v-13.3l26.6 26.6-26.6 26.6v-13.3h-30z" class="st0"/><path d="M98.1 369.5h3.1c2 0 3.5.3 4.5.8s1.8 1.3 2.4 2.4 1 2.4 1 4c0 1.1-.2 2.1-.5 3s-.8 1.6-1.5 2.2-1.3 1-2 1.2c-.7.2-2 .3-3.8.3h-3.2v-13.9zm2.6 2.5v8.8h1.2c1.2 0 2.1-.1 2.6-.4.5-.3 1-.7 1.3-1.4.3-.7.5-1.5.5-2.4 0-1.5-.4-2.6-1.2-3.4-.7-.7-1.9-1.1-3.6-1.1h-.8zm18.2 1.1h2.6v10.3h-2.6v-1.1c-.5.5-1 .8-1.5 1-.5.2-1.1.3-1.6.3-1.3 0-2.5-.5-3.4-1.5-1-1-1.5-2.3-1.5-3.8 0-1.6.5-2.9 1.4-3.9.9-1 2.1-1.5 3.4-1.5.6 0 1.2.1 1.7.3.5.2 1 .6 1.5 1v-1.1zm-2.7 2.1c-.8 0-1.5.3-2 .8s-.8 1.3-.8 2.2c0 .9.3 1.6.8 2.2.5.6 1.2.9 2 .9s1.5-.3 2-.8c.5-.6.8-1.3.8-2.2 0-.9-.3-1.6-.8-2.2-.5-.6-1.2-.9-2-.9zm8.2-5.9h2.6v3.8h1.5v2.2H127v8.1h-2.6v-8.1h-1.3v-2.2h1.3v-3.8zm13.1 3.8h2.6v10.3h-2.6v-1.1c-.5.5-1 .8-1.5 1-.5.2-1.1.3-1.6.3-1.3 0-2.5-.5-3.4-1.5-1-1-1.5-2.3-1.5-3.8 0-1.6.5-2.9 1.4-3.9.9-1 2.1-1.5 3.4-1.5.6 0 1.2.1 1.7.3.5.2 1 .6 1.5 1v-1.1zm-2.7 2.1c-.8 0-1.5.3-2 .8s-.8 1.3-.8 2.2c0 .9.3 1.6.8 2.2.5.6 1.2.9 2 .9s1.5-.3 2-.8c.5-.6.8-1.3.8-2.2 0-.9-.3-1.6-.8-2.2-.5-.6-1.2-.9-2-.9zm15.9-2.1v1.1c.5-.5 1-.8 1.5-1 .5-.2 1.1-.3 1.7-.3 1.3 0 2.5.5 3.4 1.5.9 1 1.4 2.3 1.4 3.9 0 1.5-.5 2.8-1.5 3.8s-2.1 1.5-3.5 1.5c-.6 0-1.1-.1-1.7-.3-.5-.2-1-.6-1.5-1v4.9h-2.6v-14.1h2.8zm2.7 2.1c-.8 0-1.5.3-2 .8-.5.6-.8 1.3-.8 2.2 0 .9.3 1.7.8 2.2.5.6 1.2.8 2 .8s1.5-.3 2-.9c.5-.6.8-1.3.8-2.2 0-.9-.3-1.6-.8-2.2s-1.2-.7-2-.7zm6.9-2.1h2.2v1.3c.2-.5.6-.9 1-1.2.4-.3.8-.4 1.3-.4.3 0 .7.1 1 .3l-.8 2.2c-.3-.2-.6-.2-.7-.2-.4 0-.7.2-1 .7-.3.5-.4 1.5-.4 2.9v4.7h-2.6v-10.3zm11.6-.3c1 0 1.9.2 2.7.7.9.5 1.5 1.1 2 2 .5.8.7 1.7.7 2.7 0 1-.2 1.9-.7 2.7s-1.1 1.5-2 2c-.8.5-1.7.7-2.8.7-1.5 0-2.7-.5-3.8-1.6s-1.6-2.3-1.6-3.8c0-1.6.6-2.9 1.8-4 1.2-.9 2.4-1.4 3.7-1.4zm.1 2.5c-.8 0-1.5.3-2 .8-.5.6-.8 1.3-.8 2.1 0 .9.3 1.6.8 2.2s1.2.8 2 .8 1.5-.3 2-.8c.5-.6.8-1.3.8-2.2s-.3-1.6-.8-2.2-1.2-.7-2-.7zm17.6-.1l-2.1 1.2c-.4-.4-.8-.7-1.2-.9-.4-.2-.9-.2-1.4-.2-1 0-1.7.3-2.3.9-.6.6-.9 1.3-.9 2.2 0 .9.3 1.6.9 2.1.6.6 1.3.8 2.3.8 1.2 0 2.1-.4 2.7-1.2l2 1.4c-1.1 1.4-2.7 2.2-4.7 2.2-1.8 0-3.2-.5-4.3-1.6-1-1.1-1.5-2.3-1.5-3.8 0-1 .2-1.9.7-2.8.5-.8 1.2-1.5 2.1-2 .9-.5 1.9-.7 3-.7 1 0 1.9.2 2.8.6.7.4 1.4 1 1.9 1.8zm12.6 3.8h-8.3c.1.7.4 1.3 1 1.7.5.4 1.2.6 2 .6 1 0 1.8-.3 2.5-1l2.2 1c-.5.8-1.2 1.3-1.9 1.7-.8.4-1.7.6-2.7.6-1.6 0-2.9-.5-3.9-1.5s-1.5-2.3-1.5-3.8c0-1.6.5-2.9 1.5-3.9s2.3-1.6 3.8-1.6c1.6 0 2.9.5 4 1.6s1.5 2.4 1.5 4.1l-.2.5zm-2.6-2c-.2-.6-.5-1-1-1.4-.5-.4-1.1-.5-1.7-.5-.7 0-1.4.2-1.9.6-.3.3-.7.7-.9 1.3h5.5zm11-2.5l-1.6 1.6c-.6-.6-1.2-1-1.8-1-.3 0-.5.1-.7.2s-.2.3-.2.5c0 .1.1.3.2.4.1.1.4.3.8.5l.9.5c1 .5 1.7 1 2.1 1.5s.6 1.1.6 1.8c0 .9-.3 1.7-1 2.3s-1.6.9-2.7.9c-1.5 0-2.7-.6-3.6-1.8l1.6-1.7c.3.4.7.6 1.1.9.4.2.8.3 1.1.3.3 0 .6-.1.8-.2.2-.2.3-.4.3-.6 0-.4-.4-.8-1.1-1.2l-.9-.4c-1.7-.8-2.5-1.9-2.5-3.1 0-.8.3-1.5.9-2.1s1.4-.9 2.4-.9c.7 0 1.3.1 1.9.4.5.3 1 .7 1.4 1.2zm8.5 0l-1.6 1.6c-.6-.6-1.2-1-1.8-1-.3 0-.5.1-.7.2s-.2.3-.2.5c0 .1.1.3.2.4.1.1.4.3.8.5l.9.5c1 .5 1.7 1 2.1 1.5s.6 1.1.6 1.8c0 .9-.3 1.7-1 2.3s-1.6.9-2.7.9c-1.5 0-2.7-.6-3.6-1.8l1.6-1.7c.3.4.7.6 1.1.9.4.2.8.3 1.1.3.3 0 .6-.1.8-.2.2-.2.3-.4.3-.6 0-.4-.4-.8-1.1-1.2l-.9-.4c-1.7-.8-2.5-1.9-2.5-3.1 0-.8.3-1.5.9-2.1s1.4-.9 2.4-.9c.7 0 1.3.1 1.9.4.5.3 1 .7 1.4 1.2zm3.3-5.6c.5 0 .8.2 1.2.5.3.3.5.7.5 1.2s-.2.9-.5 1.2c-.3.3-.7.5-1.2.5s-.9-.2-1.2-.5-.5-.7-.5-1.2.2-.8.5-1.2.7-.5 1.2-.5zm-1.3 4.2h2.6v10.3h-2.6v-10.3zm4.9 0h2.6v1.1c.6-.5 1.1-.8 1.6-1 .5-.2 1-.3 1.5-.3 1 0 1.9.4 2.6 1.1.6.6.9 1.5.9 2.7v6.8h-2.6V379c0-1.2-.1-2-.2-2.4-.1-.4-.3-.7-.6-.9-.3-.2-.6-.3-1-.3-.5 0-1 .2-1.3.5-.4.3-.6.8-.8 1.5-.1.3-.1 1-.1 2.1v4.1H226v-10.5zm19.2 0h2.6v8.8c0 1.7-.4 3-1 3.8-.9 1.1-2.4 1.7-4.2 1.7-1 0-1.9-.1-2.5-.4-.7-.3-1.3-.6-1.7-1.1-.5-.5-.8-1.1-1-1.8h2.8c.3.3.6.5 1 .7.4.1.9.2 1.4.2.7 0 1.3-.1 1.7-.3.4-.2.7-.5.9-.8.2-.3.3-.9.3-1.8-.5.5-.9.8-1.4 1-.5.2-1.1.3-1.7.3-1.4 0-2.5-.5-3.5-1.5s-1.4-2.3-1.4-3.8c0-1.6.5-2.9 1.5-3.9.9-.9 2-1.3 3.3-1.3.6 0 1.2.1 1.7.3.5.2 1.1.6 1.6 1.1v-1.2zm-2.7 2.1c-.8 0-1.5.3-2 .8s-.8 1.2-.8 2.1c0 .9.3 1.6.8 2.1s1.2.8 2 .8 1.5-.3 2-.8.8-1.2.8-2.1c0-.9-.3-1.6-.8-2.1s-1.1-.8-2-.8zm-43.3-38.7c-1 0-1.9.8-1.9 1.9 0 1 .8 1.9 1.9 1.9 1 0 1.9-.8 1.9-1.9-.1-1.1-.9-1.9-1.9-1.9m-7.6 0c-1 0-1.9.8-1.9 1.9 0 1 .8 1.9 1.9 1.9 1 0 1.9-.8 1.9-1.9 0-1.1-.8-1.9-1.9-1.9m-7.5 0c-1 0-1.9.8-1.9 1.9 0 1 .8 1.9 1.9 1.9 1 0 1.9-.8 1.9-1.9 0-1.1-.9-1.9-1.9-1.9m-7.5 0c-1 0-1.9.8-1.9 1.9 0 1 .8 1.9 1.9 1.9 1 0 1.9-.8 1.9-1.9-.1-1.1-.9-1.9-1.9-1.9m-7.6 0c-1 0-1.9.8-1.9 1.9 0 1 .8 1.9 1.9 1.9 1 0 1.9-.8 1.9-1.9 0-1.1-.8-1.9-1.9-1.9m-7.5 0c-1 0-1.9.8-1.9 1.9 0 1 .8 1.9 1.9 1.9 1 0 1.9-.8 1.9-1.9 0-1.1-.9-1.9-1.9-1.9m-7.6 0c-1 0-1.9.8-1.9 1.9 0 1 .8 1.9 1.9 1.9 1 0 1.9-.8 1.9-1.9 0-1.1-.8-1.9-1.9-1.9m-7.5 0c-1 0-1.9.8-1.9 1.9 0 1 .8 1.9 1.9 1.9 1 0 1.9-.8 1.9-1.9 0-1.1-.9-1.9-1.9-1.9m41.5-3.8c-1 0-1.9.8-1.9 1.9 0 1 .8 1.9 1.9 1.9 1 0 1.9-.8 1.9-1.9-.1-1-.9-1.9-1.9-1.9m7.5 0c-1 0-1.9.8-1.9 1.9 0 1 .8 1.9 1.9 1.9 1 0 1.9-.8 1.9-1.9 0-1-.9-1.9-1.9-1.9m-15.1 0c-1 0-1.9.8-1.9 1.9 0 1 .8 1.9 1.9 1.9 1 0 1.9-.8 1.9-1.9 0-1-.8-1.9-1.9-1.9m-7.5 0c-1 0-1.9.8-1.9 1.9 0 1 .8 1.9 1.9 1.9 1 0 1.9-.8 1.9-1.9 0-1-.9-1.9-1.9-1.9m-7.6 0c-1 0-1.9.8-1.9 1.9 0 1 .8 1.9 1.9 1.9 1 0 1.9-.8 1.9-1.9 0-1-.8-1.9-1.9-1.9m-7.5 0c-1 0-1.9.8-1.9 1.9 0 1 .8 1.9 1.9 1.9 1 0 1.9-.8 1.9-1.9 0-1-.9-1.9-1.9-1.9m-7.5 0c-1 0-1.9.8-1.9 1.9 0 1 .8 1.9 1.9 1.9 1 0 1.9-.8 1.9-1.9 0-1-.9-1.9-1.9-1.9m49-3.7c-1 0-1.9.8-1.9 1.9 0 1 .8 1.9 1.9 1.9 1 0 1.9-.8 1.9-1.9-.1-1.1-.9-1.9-1.9-1.9m-7.6 0c-1 0-1.9.8-1.9 1.9 0 1 .8 1.9 1.9 1.9 1 0 1.9-.8 1.9-1.9 0-1.1-.8-1.9-1.9-1.9m-9.4 1.8c0 1 .8 1.9 1.9 1.9 1 0 1.9-.8 1.9-1.9s-.8-1.9-1.9-1.9c-1.1.1-1.9.9-1.9 1.9m-7.5 0c0 1 .8 1.9 1.9 1.9 1 0 1.9-.8 1.9-1.9s-.8-1.9-1.9-1.9c-1.1.1-1.9.9-1.9 1.9m-7.6 0c0 1 .8 1.9 1.9 1.9 1 0 1.9-.8 1.9-1.9s-.8-1.9-1.9-1.9c-1 .1-1.9.9-1.9 1.9m-7.5 0c0 1 .8 1.9 1.9 1.9 1 0 1.9-.8 1.9-1.9s-.8-1.9-1.9-1.9c-1.1.1-1.9.9-1.9 1.9m-5.7 1.9c1 0 1.9-.8 1.9-1.9 0-1-.8-1.9-1.9-1.9-1 0-1.9.8-1.9 1.9.1 1.1.9 1.9 1.9 1.9m-7.5 0c1 0 1.9-.8 1.9-1.9 0-1-.8-1.9-1.9-1.9-1 0-1.9.8-1.9 1.9 0 1.1.9 1.9 1.9 1.9m52.8-11.3c-1 0-1.9.8-1.9 1.9 0 1 .8 1.9 1.9 1.9 1 0 1.9-.8 1.9-1.9-.1-1-.9-1.9-1.9-1.9m-7.6 0c-1 0-1.9.8-1.9 1.9 0 1 .8 1.9 1.9 1.9 1 0 1.9-.8 1.9-1.9 0-1-.8-1.9-1.9-1.9m-37.7 0c-1 0-1.9.8-1.9 1.9 0 1 .8 1.9 1.9 1.9 1 0 1.9-.8 1.9-1.9 0-1-.8-1.9-1.9-1.9m-3.7 7.6c1 0 1.9-.8 1.9-1.9 0-1-.8-1.9-1.9-1.9-1 0-1.9.8-1.9 1.9 0 1 .8 1.9 1.9 1.9m-3.8-3.8c1 0 1.9-.8 1.9-1.9 0-1-.8-1.9-1.9-1.9-1 0-1.9.8-1.9 1.9 0 1 .9 1.9 1.9 1.9m52.8-11.3c-1 0-1.9.8-1.9 1.9 0 1 .8 1.9 1.9 1.9 1 0 1.9-.8 1.9-1.9-.1-1.1-.9-1.9-1.9-1.9m-7.6 3.7c1 0 1.9-.8 1.9-1.9 0-1-.8-1.9-1.9-1.9-1 0-1.9.8-1.9 1.9 0 1.1.9 1.9 1.9 1.9m-37.7-3.7c-1 0-1.9.8-1.9 1.9 0 1 .8 1.9 1.9 1.9 1 0 1.9-.8 1.9-1.9 0-1.1-.8-1.9-1.9-1.9m-7.5 3.7c1 0 1.9-.8 1.9-1.9 0-1-.8-1.9-1.9-1.9-1 0-1.9.8-1.9 1.9 0 1.1.9 1.9 1.9 1.9m52.8-11.3c-1 0-1.9.8-1.9 1.9 0 1 .8 1.9 1.9 1.9 1 0 1.9-.8 1.9-1.9-.1-1-.9-1.9-1.9-1.9m-3.8-3.7c-1 0-1.9.8-1.9 1.9 0 1 .8 1.9 1.9 1.9 1 0 1.9-.8 1.9-1.9 0-1.1-.9-1.9-1.9-1.9m-3.8 7.5c1 0 1.9-.8 1.9-1.9 0-1-.8-1.9-1.9-1.9-1 0-1.9.8-1.9 1.9 0 1.1.9 1.9 1.9 1.9m-37.7-3.8c-1 0-1.9.8-1.9 1.9 0 1 .8 1.9 1.9 1.9 1 0 1.9-.8 1.9-1.9 0-1-.8-1.9-1.9-1.9m-7.5 3.8c1 0 1.9-.8 1.9-1.9 0-1-.8-1.9-1.9-1.9-1 0-1.9.8-1.9 1.9 0 1.1.9 1.9 1.9 1.9m52.8-11.3c-1 0-1.9.8-1.9 1.9 0 1 .8 1.9 1.9 1.9 1 0 1.9-.8 1.9-1.9-.1-1.1-.9-1.9-1.9-1.9m-7.6 3.8c1 0 1.9-.8 1.9-1.9 0-1-.8-1.9-1.9-1.9-1 0-1.9.8-1.9 1.9 0 1 .9 1.9 1.9 1.9m-37.7-3.8c-1 0-1.9.8-1.9 1.9 0 1 .8 1.9 1.9 1.9 1 0 1.9-.8 1.9-1.9 0-1.1-.8-1.9-1.9-1.9m-7.5 3.8c1 0 1.9-.8 1.9-1.9 0-1-.8-1.9-1.9-1.9-1 0-1.9.8-1.9 1.9 0 1 .9 1.9 1.9 1.9m3.8 18.8c1 0 1.9-.8 1.9-1.9 0-1-.8-1.9-1.9-1.9-1 0-1.9.8-1.9 1.9 0 1.1.8 1.9 1.9 1.9m0-7.5c1 0 1.9-.8 1.9-1.9 0-1-.8-1.9-1.9-1.9-1 0-1.9.8-1.9 1.9 0 1 .8 1.9 1.9 1.9m0-7.6c1 0 1.9-.8 1.9-1.9 0-1-.8-1.9-1.9-1.9-1 0-1.9.8-1.9 1.9 0 1.1.8 1.9 1.9 1.9m0-7.5c1 0 1.9-.8 1.9-1.9 0-1-.8-1.9-1.9-1.9-1 0-1.9.8-1.9 1.9 0 1.1.8 1.9 1.9 1.9m49-7.5c-1 0-1.9.8-1.9 1.9 0 1 .8 1.9 1.9 1.9 1 0 1.9-.8 1.9-1.9-.1-1.1-.9-1.9-1.9-1.9m-3.8 37.7c1 0 1.9-.8 1.9-1.9 0-1-.8-1.9-1.9-1.9-1 0-1.9.8-1.9 1.9 0 1 .9 1.9 1.9 1.9m0-11.4c-1 0-1.9.8-1.9 1.9 0 1 .8 1.9 1.9 1.9 1 0 1.9-.8 1.9-1.9 0-1-.9-1.9-1.9-1.9m0-7.5c-1 0-1.9.8-1.9 1.9 0 1 .8 1.9 1.9 1.9 1 0 1.9-.8 1.9-1.9 0-1.1-.9-1.9-1.9-1.9m0-15.1c-1 0-1.9.8-1.9 1.9 0 1 .8 1.9 1.9 1.9 1 0 1.9-.8 1.9-1.9 0-1-.9-1.9-1.9-1.9m0-3.7c1 0 1.9-.8 1.9-1.9 0-1-.8-1.9-1.9-1.9-1 0-1.9.8-1.9 1.9 0 1 .9 1.9 1.9 1.9m-3.8 3.7c1 0 1.9-.8 1.9-1.9 0-1-.8-1.9-1.9-1.9-1 0-1.9.8-1.9 1.9 0 1.1.9 1.9 1.9 1.9m-7.5-3.7c-1 0-1.9.8-1.9 1.9 0 1 .8 1.9 1.9 1.9 1 0 1.9-.8 1.9-1.9 0-1.1-.9-1.9-1.9-1.9m-5.7 1.8c0-1-.8-1.9-1.9-1.9-1 0-1.9.8-1.9 1.9 0 1 .8 1.9 1.9 1.9 1.1 0 1.9-.8 1.9-1.9m-7.5 0c0-1-.8-1.9-1.9-1.9-1 0-1.9.8-1.9 1.9 0 1 .8 1.9 1.9 1.9 1.1 0 1.9-.8 1.9-1.9m-7.5 0c0-1-.8-1.9-1.9-1.9-1 0-1.9.8-1.9 1.9 0 1 .8 1.9 1.9 1.9 1 0 1.9-.8 1.9-1.9m-9.5-1.8c-1 0-1.9.8-1.9 1.9 0 1 .8 1.9 1.9 1.9 1 0 1.9-.8 1.9-1.9 0-1.1-.8-1.9-1.9-1.9m-7.5 3.7c1 0 1.9-.8 1.9-1.9 0-1-.8-1.9-1.9-1.9-1 0-1.9.8-1.9 1.9 0 1.1.9 1.9 1.9 1.9m41.5-3.7c1 0 1.9-.8 1.9-1.9 0-1-.8-1.9-1.9-1.9-1 0-1.9.8-1.9 1.9 0 1 .8 1.9 1.9 1.9m-7.6 0c1 0 1.9-.8 1.9-1.9 0-1-.8-1.9-1.9-1.9-1 0-1.9.8-1.9 1.9 0 1 .9 1.9 1.9 1.9m-7.5 0c1 0 1.9-.8 1.9-1.9 0-1-.8-1.9-1.9-1.9-1 0-1.9.8-1.9 1.9 0 1 .8 1.9 1.9 1.9m-7.6 0c1 0 1.9-.8 1.9-1.9 0-1-.8-1.9-1.9-1.9-1 0-1.9.8-1.9 1.9.1 1 .9 1.9 1.9 1.9m-7.5 0c1 0 1.9-.8 1.9-1.9 0-1-.8-1.9-1.9-1.9-1 0-1.9.8-1.9 1.9 0 1 .9 1.9 1.9 1.9m-7.5 0c1 0 1.9-.8 1.9-1.9 0-1-.8-1.9-1.9-1.9-1 0-1.9.8-1.9 1.9 0 1 .8 1.9 1.9 1.9m49-7.6c-1 0-1.9.8-1.9 1.9 0 1 .8 1.9 1.9 1.9 1 0 1.9-.8 1.9-1.9-.1-1-.9-1.9-1.9-1.9m-7.6 3.8c1 0 1.9-.8 1.9-1.9 0-1-.8-1.9-1.9-1.9-1 0-1.9.8-1.9 1.9 0 1.1.9 1.9 1.9 1.9m-7.5 0c1 0 1.9-.8 1.9-1.9 0-1-.8-1.9-1.9-1.9-1 0-1.9.8-1.9 1.9 0 1.1.8 1.9 1.9 1.9m-7.5 0c1 0 1.9-.8 1.9-1.9 0-1-.8-1.9-1.9-1.9-1 0-1.9.8-1.9 1.9 0 1.1.8 1.9 1.9 1.9m-7.6 0c1 0 1.9-.8 1.9-1.9 0-1-.8-1.9-1.9-1.9-1 0-1.9.8-1.9 1.9 0 1.1.9 1.9 1.9 1.9m-7.5 0c1 0 1.9-.8 1.9-1.9 0-1-.8-1.9-1.9-1.9-1 0-1.9.8-1.9 1.9 0 1.1.8 1.9 1.9 1.9m-7.6 0c1 0 1.9-.8 1.9-1.9 0-1-.8-1.9-1.9-1.9-1 0-1.9.8-1.9 1.9.1 1.1.9 1.9 1.9 1.9m-7.5 0c1 0 1.9-.8 1.9-1.9 0-1-.8-1.9-1.9-1.9-1 0-1.9.8-1.9 1.9 0 1.1.9 1.9 1.9 1.9" class="st8"/><path d="M204.8 344h-64.1v-64.1h64.1V344zm9.4-49c1 0 1.9-.8 1.9-1.9 0-1-.8-1.9-1.9-1.9h-5.6v-3.8h5.6c1 0 1.9-.8 1.9-1.9 0-1-.8-1.9-1.9-1.9h-5.6V280c0-2.1-1.7-3.8-3.8-3.8H201v-5.6c0-1-.8-1.9-1.9-1.9-1 0-1.9.8-1.9 1.9v5.6h-3.8v-5.6c0-1-.8-1.9-1.9-1.9-1 0-1.9.8-1.9 1.9v5.6H186v-5.6c0-1-.8-1.9-1.9-1.9-1 0-1.9.8-1.9 1.9v5.6h-3.8v-5.6c0-1-.8-1.9-1.9-1.9-1 0-1.9.8-1.9 1.9v5.6h-3.8v-5.6c0-1-.8-1.9-1.9-1.9-1 0-1.9.8-1.9 1.9v5.6h-3.8v-5.6c0-1-.8-1.9-1.9-1.9-1 0-1.9.8-1.9 1.9v5.6h-3.8v-5.6c0-1-.8-1.9-1.9-1.9-1 0-1.9.8-1.9 1.9v5.6H148v-5.6c0-1-.8-1.9-1.9-1.9-1 0-1.9.8-1.9 1.9v5.6h-3.8c-2.1 0-3.8 1.7-3.8 3.8v3.8H131c-1 0-1.9.8-1.9 1.9 0 1 .8 1.9 1.9 1.9h5.6v3.8H131c-1 0-1.9.8-1.9 1.9 0 1 .8 1.9 1.9 1.9h5.6v3.8H131c-1 0-1.9.8-1.9 1.9 0 1 .8 1.9 1.9 1.9h5.6v3.8H131c-1 0-1.9.8-1.9 1.9 0 1 .8 1.9 1.9 1.9h5.6v3.8H131c-1 0-1.9.8-1.9 1.9 0 1 .8 1.9 1.9 1.9h5.6v3.8H131c-1 0-1.9.8-1.9 1.9 0 1 .8 1.9 1.9 1.9h5.6v3.8H131c-1 0-1.9.8-1.9 1.9 0 1 .8 1.9 1.9 1.9h5.6v3.8H131c-1 0-1.9.8-1.9 1.9 0 1 .8 1.9 1.9 1.9h5.6v3.8c0 2.1 1.7 3.8 3.8 3.8h3.8v5.6c0 1 .8 1.9 1.9 1.9 1 0 1.9-.8 1.9-1.9v-5.6h3.8v5.6c0 1 .8 1.9 1.9 1.9 1 0 1.9-.8 1.9-1.9v-5.6h3.8v5.6c0 1 .8 1.9 1.9 1.9 1 0 1.9-.8 1.9-1.9v-5.6h3.8v5.6c0 1 .8 1.9 1.9 1.9 1 0 1.9-.8 1.9-1.9v-5.6h3.8v5.6c0 1 .8 1.9 1.9 1.9 1 0 1.9-.8 1.9-1.9v-5.6h3.8v5.6c0 1 .8 1.9 1.9 1.9 1 0 1.9-.8 1.9-1.9v-5.6h3.8v5.6c0 1 .8 1.9 1.9 1.9 1 0 1.9-.8 1.9-1.9v-5.6h3.8v5.6c0 1 .8 1.9 1.9 1.9 1 0 1.9-.8 1.9-1.9v-5.6h3.8c2.1 0 3.8-1.7 3.8-3.8v-3.8h5.6c1 0 1.9-.8 1.9-1.9 0-1-.8-1.9-1.9-1.9h-5.6v-3.8h5.6c1 0 1.9-.8 1.9-1.9 0-1-.8-1.9-1.9-1.9h-5.6v-3.8h5.6c1 0 1.9-.8 1.9-1.9 0-1-.8-1.9-1.9-1.9h-5.6V318h5.6c1 0 1.9-.8 1.9-1.9 0-1-.8-1.9-1.9-1.9h-5.6v-3.8h5.6c1 0 1.9-.8 1.9-1.9 0-1-.8-1.9-1.9-1.9h-5.6v-3.8h5.6c1 0 1.9-.8 1.9-1.9 0-1-.8-1.9-1.9-1.9h-5.6v-4h5.4z" class="st8"/><path d="M186 300.7c0-1-.8-1.9-1.9-1.9h-22.6c-1 0-1.9.8-1.9 1.9v22.6c0 1 .8 1.9 1.9 1.9h22.6c1 0 1.9-.8 1.9-1.9v-22.6zM96.6 152.2l-1.9 1.7c-.7-.9-1.4-1.4-2.1-1.4-.3 0-.6.1-.8.3-.2.2-.3.4-.3.6s.1.4.2.6c.2.3.8.9 1.9 1.7 1 .8 1.6 1.3 1.8 1.6.5.5.9 1 1.1 1.5.2.5.3 1 .3 1.6 0 1.1-.4 2-1.2 2.8s-1.8 1.1-3 1.1c-1 0-1.8-.2-2.5-.7-.7-.5-1.3-1.2-1.8-2.2l2.2-1.3c.7 1.2 1.4 1.8 2.3 1.8.4 0 .8-.1 1.1-.4.3-.3.5-.6.5-.9 0-.3-.1-.6-.3-.9-.2-.3-.7-.8-1.5-1.4-1.5-1.2-2.4-2.1-2.9-2.8-.4-.7-.6-1.3-.6-2 0-.9.4-1.8 1.1-2.4.7-.7 1.6-1 2.7-1 .7 0 1.3.2 1.9.5.5.2 1.1.8 1.8 1.6zm2.5 1.7h2.5v1.2c.4-.5.9-.8 1.4-1.1.5-.2 1.1-.4 1.7-.4.6 0 1.2.2 1.7.5s.9.8 1.2 1.4c.4-.6.9-1 1.5-1.4.6-.3 1.2-.5 1.9-.5s1.3.2 1.9.5.9.8 1.2 1.3c.2.5.4 1.4.4 2.6v5.9H112v-5.1c0-1.1-.1-1.9-.4-2.3-.3-.4-.7-.6-1.3-.6-.4 0-.8.1-1.2.4-.3.2-.6.6-.8 1-.2.4-.2 1.1-.2 2.1v4.5h-2.5V159c0-.9-.1-1.6-.2-2-.1-.4-.3-.7-.6-.9s-.6-.3-1-.3-.8.1-1.1.4-.6.6-.8 1c-.2.5-.3 1.2-.3 2.1v4.5h-2.5v-9.9zm25.2 0h2.5V164h-2.5v-1.1c-.5.5-1 .8-1.5 1-.5.2-1 .3-1.6.3-1.3 0-2.4-.5-3.4-1.5s-1.4-2.3-1.4-3.8c0-1.6.5-2.8 1.4-3.8.9-1 2-1.5 3.3-1.5.6 0 1.2.1 1.7.3.5.2 1 .6 1.5 1v-1zm-2.7 2.1c-.8 0-1.4.3-1.9.8s-.8 1.3-.8 2.1c0 .9.3 1.6.8 2.1.5.6 1.2.8 1.9.8.8 0 1.5-.3 2-.8.5-.6.8-1.3.8-2.2 0-.9-.3-1.6-.8-2.1-.5-.4-1.2-.7-2-.7zm7.2-2.1h2.2v1.3c.2-.5.5-.9.9-1.1.4-.3.8-.4 1.3-.4.3 0 .7.1 1 .3l-.8 2.2c-.3-.1-.5-.2-.7-.2-.4 0-.7.2-1 .7-.3.5-.4 1.4-.4 2.8v4.6h-2.5v-10.2zm6.9-3.7h2.5v3.7h1.5v2.2h-1.5v7.9h-2.5v-7.9h-1.3v-2.2h1.3v-3.7zm18.1 3.7h2.5V164h-2.5v-1.1c-.5.5-1 .8-1.5 1-.5.2-1 .3-1.6.3-1.3 0-2.4-.5-3.4-1.5s-1.4-2.3-1.4-3.8c0-1.6.5-2.8 1.4-3.8.9-1 2-1.5 3.3-1.5.6 0 1.2.1 1.7.3.5.2 1 .6 1.5 1v-1zm-2.6 2.1c-.8 0-1.4.3-1.9.8s-.8 1.3-.8 2.1c0 .9.3 1.6.8 2.1.5.6 1.2.8 1.9.8.8 0 1.5-.3 2-.8.5-.6.8-1.3.8-2.2 0-.9-.3-1.6-.8-2.1-.6-.4-1.2-.7-2-.7zm7.7-2.1h2.5v1c.6-.5 1.1-.8 1.6-1 .5-.2.9-.3 1.4-.3 1 0 1.8.3 2.5 1 .6.6.9 1.5.9 2.6v6.6h-2.5v-4.4c0-1.2-.1-2-.2-2.4-.1-.4-.3-.7-.6-.9-.3-.2-.6-.3-1-.3-.5 0-.9.2-1.3.5s-.6.8-.8 1.4c-.1.3-.1 1-.1 2v4h-2.5v-9.8zm18.8 0h2.5V164h-2.5v-1.1c-.5.5-1 .8-1.5 1-.5.2-1 .3-1.6.3-1.3 0-2.4-.5-3.4-1.5s-1.4-2.3-1.4-3.8c0-1.6.5-2.8 1.4-3.8.9-1 2-1.5 3.3-1.5.6 0 1.2.1 1.7.3.5.2 1 .6 1.5 1v-1zM175 156c-.8 0-1.4.3-1.9.8s-.8 1.3-.8 2.1c0 .9.3 1.6.8 2.1.5.6 1.2.8 1.9.8.8 0 1.5-.3 2-.8.5-.6.8-1.3.8-2.2 0-.9-.3-1.6-.8-2.1-.5-.4-1.2-.7-2-.7zm7.5-6h2.5v14h-2.5v-14zm3.7 3.9h2.6l2.6 6.3 2.9-6.3h2.6l-6.3 13.7H188l2.1-4.4-3.9-9.3zm12.4-3.7h2.5v3.7h1.5v2.2h-1.5v7.9h-2.5v-7.9h-1.3v-2.2h1.3v-3.7zm6.4-.4c.4 0 .8.2 1.1.5.3.3.5.7.5 1.2s-.2.8-.5 1.2-.7.5-1.1.5c-.4 0-.8-.2-1.1-.5s-.5-.7-.5-1.2c0-.4.2-.8.5-1.1.2-.5.6-.6 1.1-.6zm-1.3 4.1h2.5V164h-2.5v-10.1zm14.7 2.1l-2.1 1.2c-.4-.4-.8-.7-1.2-.9s-.8-.2-1.4-.2c-.9 0-1.7.3-2.3.8-.6.6-.9 1.3-.9 2.2 0 .9.3 1.6.8 2.1s1.3.8 2.2.8c1.1 0 2-.4 2.6-1.2l2 1.4c-1.1 1.4-2.6 2.1-4.6 2.1-1.8 0-3.2-.5-4.2-1.6s-1.5-2.3-1.5-3.7c0-1 .2-1.9.7-2.7.5-.8 1.2-1.5 2-1.9.9-.5 1.8-.7 2.9-.7 1 0 1.9.2 2.7.6 1.1.4 1.8.9 2.3 1.7zm7.5-2.1h2.6v4.8c0 .9.1 1.6.2 2 .1.4.3.7.6.9.3.2.6.3 1.1.3s.8-.1 1.1-.3c.3-.2.5-.5.7-.9.1-.3.2-.9.2-1.9v-4.9h2.5v4.3c0 1.8-.1 3-.4 3.6-.3.8-.8 1.4-1.5 1.8s-1.5.6-2.5.6c-1.1 0-2-.2-2.7-.7s-1.2-1.2-1.4-2.1c-.2-.6-.3-1.7-.3-3.3v-4.2zm11.4 0h2.5v1c.6-.5 1.1-.8 1.6-1 .5-.2.9-.3 1.4-.3 1 0 1.8.3 2.5 1 .6.6.9 1.5.9 2.6v6.6h-2.5v-4.4c0-1.2-.1-2-.2-2.4-.1-.4-.3-.7-.6-.9-.3-.2-.6-.3-1-.3-.5 0-.9.2-1.3.5s-.6.8-.8 1.4c-.1.3-.1 1-.1 2v4h-2.5v-9.8zm12.4-4.1c.4 0 .8.2 1.1.5.3.3.5.7.5 1.2s-.2.8-.5 1.2-.7.5-1.1.5c-.4 0-.8-.2-1.1-.5s-.5-.7-.5-1.2c0-.4.2-.8.5-1.1.2-.5.6-.6 1.1-.6zm-1.3 4.1h2.5V164h-2.5v-10.1zm5.1-3.7h2.5v3.7h1.5v2.2H256v7.9h-2.5v-7.9h-1.3v-2.2h1.3v-3.7zm-75.6-93.1c-3.6-1.7-5.4-5.3-3.6-8.9 1-3.9 6-5.1 9.6-3.3 3.6 1.7 4.3 5.6 2.6 9.2-1.8 3.6-5.7 4.4-8.6 3m58.7 37.4l-10-4.9-4.2 8.6c-15.4-6.6-31.1-12.5-47.1-19.4 1.7-3.6 3.1-6.4 4.9-10 0 0 1.1-.4 1.4-1.1 2.5-1.5 4.9-2.9 7.4-4.4 1.1-.4 2.5-1.5 3.9-.8 11-.8 21.3-.2 32.7 0 3.9-.7 5-1.1 4.6-5.7.6-10.3.5-21 .7-32.4 0-3.6-1.1-5-4.7-4.9-37-.3-74-.6-110.2-.6-2.5-.3-4.6.4-7.1.1 4.3 5.7 13.2 5.6 12.6 14.1-1.1.4-2.8.4-4.6.4 0 5.3.1 10.7.1 16 1.4.7 2.5.3 4.3.3-.3 2.5.4 4.6.4 6.4-.3 4.3 0 5.3 4.7 4.9 13.9.6 27 .8 40.5.3 5.3-.1 5.7 1 3.2 6-3.8 7.9-7.7 15.7-11.5 23.6-2.1 4.3-1.7 7.1 1.2 8.5 2.9 1.4 5.3-.1 7.4-4.4 1.4-2.9 2.4-5 4.2-8.6 14.7 8 29 16.8 44.3 25.1l-9.8 20 10 4.9 20.7-42zM98.4 581h3.1c2 0 3.5.3 4.5.8s1.8 1.3 2.4 2.4c.6 1.1 1 2.4 1 4 0 1.1-.2 2.1-.5 3-.4.9-.8 1.6-1.5 2.2-.6.6-1.3 1-2 1.2s-2 .3-3.8.3h-3.2V581zm2.6 2.6v8.8h1.2c1.2 0 2.1-.1 2.6-.4.5-.3 1-.7 1.3-1.4s.5-1.5.5-2.4c0-1.5-.4-2.6-1.2-3.4-.7-.7-1.9-1.1-3.6-1.1h-.8zm18.3 1.1h2.6V595h-2.6v-1.1c-.5.5-1 .8-1.5 1-.5.2-1.1.3-1.6.3-1.3 0-2.5-.5-3.5-1.5s-1.5-2.3-1.5-3.8c0-1.6.5-2.9 1.4-3.9.9-1 2.1-1.5 3.4-1.5.6 0 1.2.1 1.7.4s1 .6 1.5 1.1v-1.3zm-2.8 2.1c-.8 0-1.5.3-2 .8s-.8 1.3-.8 2.2c0 .9.3 1.6.8 2.2.5.6 1.2.9 2 .9s1.5-.3 2-.8c.5-.6.8-1.3.8-2.2 0-.9-.3-1.6-.8-2.2-.5-.6-1.1-.9-2-.9zm8.3-5.9h2.6v3.8h1.5v2.2h-1.5v8.1h-2.6v-8.1h-1.3v-2.2h1.3v-3.8zm13.1 3.8h2.6V595h-2.6v-1.1c-.5.5-1 .8-1.5 1-.5.2-1.1.3-1.6.3-1.3 0-2.5-.5-3.5-1.5s-1.5-2.3-1.5-3.8c0-1.6.5-2.9 1.4-3.9.9-1 2.1-1.5 3.4-1.5.6 0 1.2.1 1.7.4s1 .6 1.5 1.1v-1.3zm-2.7 2.1c-.8 0-1.5.3-2 .8s-.8 1.3-.8 2.2c0 .9.3 1.6.8 2.2.5.6 1.2.9 2 .9s1.5-.3 2-.8c.5-.6.8-1.3.8-2.2 0-.9-.3-1.6-.8-2.2-.6-.6-1.2-.9-2-.9zm23.6 3.8h-8.3c.1.7.4 1.3 1 1.7.5.4 1.2.6 2 .6 1 0 1.8-.3 2.5-1l2.2 1c-.5.8-1.2 1.3-2 1.7s-1.7.6-2.7.6c-1.6 0-2.9-.5-3.9-1.5s-1.5-2.3-1.5-3.8c0-1.6.5-2.9 1.5-3.9s2.3-1.6 3.8-1.6c1.6 0 2.9.5 4 1.6 1 1 1.5 2.4 1.5 4.1l-.1.5zm-2.6-2.1c-.2-.6-.5-1-1-1.4-.5-.4-1.1-.5-1.7-.5-.7 0-1.4.2-1.9.6-.3.3-.7.7-.9 1.3h5.5zm4.7-3.8h2.6v1.1c.6-.5 1.1-.8 1.6-1 .5-.2 1-.3 1.5-.3 1 0 1.9.4 2.6 1.1.6.6.9 1.5.9 2.7v6.8h-2.6v-4.5c0-1.2-.1-2-.2-2.4-.1-.4-.3-.7-.6-.9-.3-.2-.6-.3-1-.3-.5 0-1 .2-1.3.5-.4.4-.6.8-.8 1.5-.1.3-.1 1-.1 2.1v4.1h-2.6v-10.5zm21.7 2l-2.2 1.2c-.4-.4-.8-.7-1.2-.9s-.9-.2-1.4-.2c-1 0-1.7.3-2.3.9-.6.6-.9 1.3-.9 2.2 0 .9.3 1.6.9 2.1s1.3.8 2.3.8c1.2 0 2.1-.4 2.7-1.2l2 1.4c-1.1 1.4-2.7 2.2-4.7 2.2-1.8 0-3.2-.5-4.3-1.6-1-1.1-1.5-2.3-1.5-3.8 0-1 .2-1.9.7-2.8.5-.8 1.2-1.5 2.1-2s1.9-.7 3-.7c1 0 1.9.2 2.8.6.8.5 1.5 1.1 2 1.8zm1.7-2h2.2v1.3c.2-.5.6-.9 1-1.2.4-.3.8-.4 1.3-.4.3 0 .7.1 1.1.3l-.8 2.2c-.3-.2-.6-.2-.7-.2-.4 0-.7.2-1 .7s-.4 1.5-.4 2.9v4.7h-2.6v-10.3zm5.7 0h2.6l2.7 6.5 3-6.5h2.6l-6.5 14.1h-2.7l2.1-4.5-3.8-9.6zm15 0v1.1c.5-.5 1-.8 1.5-1.1.5-.2 1.1-.4 1.7-.4 1.3 0 2.5.5 3.4 1.5.9 1 1.4 2.3 1.4 3.9 0 1.5-.5 2.8-1.5 3.8s-2.1 1.5-3.5 1.5c-.6 0-1.1-.1-1.7-.3-.5-.2-1-.6-1.5-1v4.9h-2.6v-14.1h2.8zm2.7 2.1c-.8 0-1.5.3-2 .8-.5.6-.8 1.3-.8 2.2 0 .9.3 1.7.8 2.2.5.6 1.2.8 2 .8s1.5-.3 2-.9c.5-.6.8-1.3.8-2.2 0-.9-.3-1.6-.8-2.2-.5-.4-1.2-.7-2-.7zm7.8-5.9h2.6v3.8h1.5v2.2h-1.5v8.1h-2.6v-8.1h-1.3v-2.2h1.3v-3.8zm6.5-.5c.5 0 .8.2 1.2.5s.5.7.5 1.2-.2.9-.5 1.2c-.3.3-.7.5-1.2.5s-.9-.2-1.2-.5c-.3-.3-.5-.7-.5-1.2s.2-.8.5-1.2c.4-.3.8-.5 1.2-.5zm-1.3 4.3h2.6V595h-2.6v-10.3zm5 0h2.6v1.1c.6-.5 1.1-.8 1.6-1 .5-.2 1-.3 1.5-.3 1 0 1.9.4 2.6 1.1.6.6.9 1.5.9 2.7v6.8h-2.6v-4.5c0-1.2-.1-2-.2-2.4-.1-.4-.3-.7-.6-.9-.3-.2-.6-.3-1-.3-.5 0-1 .2-1.3.5-.4.4-.6.8-.8 1.5-.1.3-.1 1-.1 2.1v4.1h-2.6v-10.5zm19.2 0h2.6v8.8c0 1.7-.4 3-1.1 3.8-.9 1.1-2.4 1.7-4.3 1.7-1 0-1.9-.1-2.5-.4-.7-.3-1.3-.6-1.7-1.1s-.8-1.1-1.1-1.8h2.8c.3.3.6.5 1 .7.4.1.9.2 1.4.2.7 0 1.3-.1 1.7-.3.4-.2.7-.5.9-.8.2-.3.3-.9.3-1.8-.5.5-.9.8-1.4 1-.5.2-1.1.3-1.7.3-1.4 0-2.5-.5-3.5-1.5s-1.4-2.3-1.4-3.8c0-1.6.5-2.9 1.5-3.9.9-.9 2-1.3 3.3-1.3.6 0 1.2.1 1.7.3s1.1.6 1.6 1.1v-1.2zm-2.7 2.1c-.8 0-1.5.3-2 .8s-.8 1.2-.8 2.1c0 .9.3 1.6.8 2.1s1.2.8 2 .8 1.5-.3 2-.8.8-1.2.8-2.1c0-.9-.3-1.6-.8-2.1s-1.1-.8-2-.8zm-49.8-68.5h-39.2v-4.1c0-10.8 8.8-19.6 19.6-19.6s19.6 8.8 19.6 19.6v4.1zM176 545.1v8.3c0 1.8-1.4 3.2-3.2 3.2-1.8 0-3.2-1.4-3.2-3.2v-8.3c-1.3-1-2.2-2.6-2.2-4.3 0-3 2.4-5.4 5.4-5.4s5.4 2.4 5.4 5.4c0 1.7-.9 3.3-2.2 4.3m-3.2-57.4c-14.7 0-26.6 11.9-26.6 26.6V567c0 2.6 2.1 4.6 4.6 4.6h43.9c2.6 0 4.6-2.1 4.6-4.6v-52.7c.1-14.7-11.8-26.6-26.5-26.6" class="st8"/></svg>