<svg xmlns="http://www.w3.org/2000/svg" id="Layer_1" viewBox="0 0 681 608.2"><style>.st0{enable-background:new ;} .st1{fill:#2F4666;} .st2{fill:#EBE7EB;} .st3{fill:#FEEBD4;} .st4{fill:none;stroke:#FFFFFF;stroke-width:3;stroke-miterlimit:10;} .st5{fill:#FF0000;} .st6{fill:none;stroke:#FFFFFF;stroke-width:4;stroke-miterlimit:10;} .st7{fill:#F7931E;} .st8{fill:#603813;} .st9{fill:#0071BC;} .st10{fill:#39B54A;} .st11{fill:none;stroke:#39B54A;stroke-width:4;stroke-miterlimit:10;} .st12{fill:#929497;} .st13{fill:#F6921E;} .st14{fill:none;} .st15{fill:#EDEBE9;} .st16{fill:#FFFFFF;} .st17{fill:none;stroke:#39B54A;stroke-width:2;stroke-miterlimit:10;} .st18{fill:#FFFFFF;stroke:#39B54A;stroke-miterlimit:10;} .st19{opacity:0.9;fill:#FFFFFF;enable-background:new ;} .st20{fill:none;stroke:#FF0000;stroke-miterlimit:10;} .st21{fill:none;stroke:#666666;stroke-width:2;stroke-miterlimit:10;} .st22{fill:none;stroke:#ED1C24;stroke-width:2;stroke-miterlimit:10;} .st23{fill:none;stroke:#FF0000;stroke-width:2;stroke-miterlimit:10;}</style><path d="M98.7 331.6l-1.9 1.8c-1.3-1.3-2.7-2-4.3-2-1.3 0-2.4.5-3.4 1.4-.9.9-1.4 2-1.4 3.4 0 .9.2 1.8.6 2.5.4.7 1 1.3 1.7 1.7s1.6.6 2.5.6c.8 0 1.5-.1 2.1-.4.6-.3 1.3-.8 2.1-1.6l1.8 1.9c-1 1-2 1.7-2.9 2.1-.9.4-2 .6-3.1.6-2.2 0-3.9-.7-5.3-2.1-1.4-1.4-2.1-3.1-2.1-5.3 0-1.4.3-2.6.9-3.7s1.5-1.9 2.7-2.6c1.2-.7 2.4-1 3.8-1 1.1 0 2.3.2 3.3.7 1.2.4 2.1 1.1 2.9 2zm1.7-2.8h2.6v14.3h-2.6v-14.3zm9.8 3.7c1 0 1.9.2 2.7.7.9.5 1.5 1.1 2 2 .5.8.7 1.7.7 2.7 0 1-.2 1.9-.7 2.7s-1.1 1.5-2 2c-.8.5-1.7.7-2.8.7-1.5 0-2.7-.5-3.8-1.6s-1.6-2.3-1.6-3.8c0-1.6.6-2.9 1.8-4 1.2-.9 2.4-1.4 3.7-1.4zm0 2.5c-.8 0-1.5.3-2 .8-.5.6-.8 1.3-.8 2.1 0 .9.3 1.6.8 2.2s1.2.8 2 .8 1.5-.3 2-.8c.5-.6.8-1.3.8-2.2 0-.9-.3-1.6-.8-2.2-.5-.5-1.1-.7-2-.7zm7.6-2.2h2.6v5c0 1 .1 1.6.2 2s.3.7.6.9.7.3 1.1.3.8-.1 1.1-.3c.3-.2.5-.5.7-.9.1-.3.2-.9.2-1.9v-5h2.6v4.4c0 1.8-.1 3-.4 3.7-.3.8-.9 1.4-1.5 1.9s-1.5.6-2.6.6-2-.3-2.7-.8c-.7-.5-1.2-1.2-1.5-2.1-.2-.6-.3-1.8-.3-3.4v-4.4zm19.2-4h2.6v14.3H137V342c-.5.5-1 .8-1.5 1-.5.2-1.1.3-1.6.3-1.3 0-2.5-.5-3.4-1.5-1-1-1.5-2.3-1.5-3.8 0-1.6.5-2.9 1.4-3.9.9-1 2.1-1.5 3.4-1.5.6 0 1.2.1 1.7.3.5.2 1 .6 1.5 1v-5.1zm-2.7 6.1c-.8 0-1.5.3-2 .8-.5.6-.8 1.3-.8 2.2 0 .9.3 1.6.8 2.2.5.6 1.2.9 2 .9s1.5-.3 2-.8.8-1.3.8-2.2c0-.9-.3-1.6-.8-2.2-.5-.6-1.2-.9-2-.9zm20.9-6.1h2.6v14.3h-2.6V342c-.5.5-1 .8-1.5 1-.5.2-1.1.3-1.6.3-1.3 0-2.5-.5-3.4-1.5-1-1-1.5-2.3-1.5-3.8 0-1.6.5-2.9 1.4-3.9.9-1 2.1-1.5 3.4-1.5.6 0 1.2.1 1.7.3.5.2 1 .6 1.5 1v-5.1zm-2.7 6.1c-.8 0-1.5.3-2 .8-.5.6-.8 1.3-.8 2.2 0 .9.3 1.6.8 2.2.5.6 1.2.9 2 .9s1.5-.3 2-.8.8-1.3.8-2.2c0-.9-.3-1.6-.8-2.2-.5-.6-1.2-.9-2-.9zm15.5-2.1h2.6v10.3H168V342c-.5.5-1 .8-1.5 1-.5.2-1.1.3-1.6.3-1.3 0-2.5-.5-3.4-1.5-1-1-1.5-2.3-1.5-3.8 0-1.6.5-2.9 1.4-3.9.9-1 2.1-1.5 3.4-1.5.6 0 1.2.1 1.7.3.5.2 1 .6 1.5 1v-1.1zm-2.7 2.1c-.8 0-1.5.3-2 .8-.5.6-.8 1.3-.8 2.2 0 .9.3 1.6.8 2.2.5.6 1.2.9 2 .9s1.5-.3 2-.8.8-1.3.8-2.2c0-.9-.3-1.6-.8-2.2-.5-.6-1.2-.9-2-.9zm8.2-5.9h2.6v3.8h1.5v2.2h-1.5v8.1h-2.6V335h-1.3v-2.2h1.3V329zm13.1 3.8h2.6v10.3h-2.6V342c-.5.5-1 .8-1.5 1-.5.2-1.1.3-1.6.3-1.3 0-2.5-.5-3.4-1.5-1-1-1.5-2.3-1.5-3.8 0-1.6.5-2.9 1.4-3.9.9-1 2.1-1.5 3.4-1.5.6 0 1.2.1 1.7.3.5.2 1 .6 1.5 1v-1.1zm-2.7 2.1c-.8 0-1.5.3-2 .8-.5.6-.8 1.3-.8 2.2 0 .9.3 1.6.8 2.2.5.6 1.2.9 2 .9s1.5-.3 2-.8.8-1.3.8-2.2c0-.9-.3-1.6-.8-2.2-.5-.6-1.2-.9-2-.9zm10.4-6.1v5.1c.5-.5 1-.8 1.5-1 .5-.2 1.1-.3 1.7-.3 1.3 0 2.5.5 3.4 1.5.9 1 1.4 2.3 1.4 3.9 0 1.5-.5 2.8-1.5 3.8s-2.1 1.5-3.5 1.5c-.6 0-1.1-.1-1.7-.3-.5-.2-1-.6-1.5-1v1.1h-2.6v-14.3h2.8zm2.7 6.1c-.8 0-1.5.3-2 .8-.5.6-.8 1.3-.8 2.2 0 .9.3 1.7.8 2.2s1.2.8 2 .8 1.5-.3 2-.9c.5-.6.8-1.3.8-2.2 0-.9-.3-1.6-.8-2.2s-1.1-.7-2-.7zm15.1-2.1h2.6v10.3h-2.6V342c-.5.5-1 .8-1.5 1-.5.2-1.1.3-1.6.3-1.3 0-2.5-.5-3.4-1.5-1-1-1.5-2.3-1.5-3.8 0-1.6.5-2.9 1.4-3.9.9-1 2.1-1.5 3.4-1.5.6 0 1.2.1 1.7.3.5.2 1 .6 1.5 1v-1.1zm-2.7 2.1c-.8 0-1.5.3-2 .8-.5.6-.8 1.3-.8 2.2 0 .9.3 1.6.8 2.2.5.6 1.2.9 2 .9s1.5-.3 2-.8.8-1.3.8-2.2c0-.9-.3-1.6-.8-2.2-.5-.6-1.1-.9-2-.9zm14.2-.7l-1.6 1.6c-.6-.6-1.2-1-1.8-1-.3 0-.5.1-.7.2-.2.1-.2.3-.2.5 0 .1.1.3.2.4.1.1.4.3.8.5l.9.5c1 .5 1.7 1 2.1 1.5s.6 1.1.6 1.8c0 .9-.3 1.7-1 2.3s-1.6.9-2.7.9c-1.5 0-2.7-.6-3.6-1.8l1.6-1.7c.3.4.7.6 1.1.9.4.2.8.3 1.1.3.3 0 .6-.1.8-.2s.3-.4.3-.6c0-.4-.4-.8-1.1-1.2l-.9-.4c-1.7-.8-2.5-1.9-2.5-3.1 0-.8.3-1.5.9-2.1.6-.6 1.4-.9 2.4-.9.7 0 1.3.1 1.9.4.5.3 1 .7 1.4 1.2zm12.6 4.5h-8.3c.1.7.4 1.3 1 1.7.5.4 1.2.6 2 .6 1 0 1.8-.3 2.5-1l2.2 1c-.5.8-1.2 1.3-1.9 1.7-.8.4-1.7.6-2.7.6-1.6 0-2.9-.5-3.9-1.5s-1.5-2.3-1.5-3.8c0-1.6.5-2.9 1.5-3.9s2.3-1.6 3.8-1.6c1.6 0 2.9.5 4 1.6 1 1 1.5 2.4 1.5 4.1l-.2.5zm-2.6-2.1c-.2-.6-.5-1-1-1.4s-1.1-.5-1.7-.5c-.7 0-1.4.2-1.9.6-.3.3-.7.7-.9 1.3h5.5zM102.3 586.9h2.8V599h4.1v2.7h-6.9v-14.8zm13.9 3.6c1 0 2 .3 2.9.8s1.6 1.2 2.1 2.1c.5.9.8 1.8.8 2.9 0 1-.3 2-.8 2.9s-1.2 1.6-2.1 2.1c-.9.5-1.9.8-2.9.8-1.6 0-2.9-.6-4-1.7s-1.7-2.5-1.7-4.1c0-1.7.6-3.1 1.9-4.3 1.1-1 2.4-1.5 3.8-1.5zm0 2.5c-.9 0-1.6.3-2.1.9-.6.6-.9 1.4-.9 2.3 0 1 .3 1.7.8 2.3.6.6 1.3.9 2.1.9s1.6-.3 2.2-.9c.6-.6.9-1.4.9-2.3s-.3-1.7-.8-2.3-1.3-.9-2.2-.9zm18.8 0l-2.3 1.3c-.4-.4-.9-.8-1.3-.9-.4-.2-.9-.3-1.5-.3-1 0-1.9.3-2.5.9-.6.6-1 1.4-1 2.4 0 .9.3 1.7.9 2.3.6.6 1.4.9 2.4.9 1.2 0 2.2-.4 2.9-1.3l2.2 1.5c-1.2 1.5-2.8 2.3-5 2.3-1.9 0-3.4-.6-4.5-1.7s-1.6-2.5-1.6-4c0-1.1.3-2 .8-2.9s1.3-1.6 2.2-2.1c1-.5 2-.8 3.2-.8 1.1 0 2.1.2 2.9.7s1.6.9 2.2 1.7zm10.6-2.3h2.8v11h-2.8v-1.2c-.5.5-1.1.9-1.6 1.1-.5.2-1.1.3-1.8.3-1.4 0-2.6-.5-3.7-1.6-1-1.1-1.5-2.5-1.5-4.1 0-1.7.5-3.1 1.5-4.2s2.2-1.6 3.6-1.6c.7 0 1.3.1 1.9.4.6.2 1.1.6 1.6 1.1v-1.2zm-2.9 2.3c-.9 0-1.6.3-2.1.9-.6.6-.8 1.4-.8 2.3 0 .9.3 1.7.9 2.3.6.6 1.3.9 2.1.9.9 0 1.6-.3 2.1-.9.6-.6.9-1.4.9-2.4s-.3-1.7-.9-2.3c-.6-.5-1.4-.8-2.2-.8zm8.1-6.5h2.8v15.2h-2.8v-15.2zm17.7 5.8l-1.7 1.7c-.7-.7-1.3-1-1.9-1-.3 0-.6.1-.7.2-.2.1-.3.3-.3.5 0 .1.1.3.2.4.1.1.4.3.8.5l1 .5c1.1.5 1.8 1.1 2.2 1.6.4.5.6 1.2.6 1.9 0 1-.4 1.8-1.1 2.4-.7.7-1.7 1-2.9 1-1.6 0-2.9-.6-3.8-1.9l1.7-1.8c.3.4.7.7 1.1.9.4.2.8.3 1.2.3.4 0 .7-.1.9-.3s.3-.4.3-.6c0-.4-.4-.8-1.2-1.2l-.9-.4c-1.8-.9-2.7-2-2.7-3.4 0-.9.3-1.6 1-2.2.7-.6 1.5-.9 2.6-.9.7 0 1.4.2 2 .5.7.2 1.2.7 1.6 1.3zm13.4 4.7H173c.1.8.5 1.4 1 1.9.6.5 1.3.7 2.1.7 1 0 1.9-.4 2.7-1.1l2.3 1.1c-.6.8-1.3 1.4-2.1 1.8-.8.4-1.8.6-2.9.6-1.7 0-3.1-.5-4.2-1.6s-1.6-2.4-1.6-4.1c0-1.7.5-3.1 1.6-4.2s2.4-1.7 4.1-1.7c1.7 0 3.1.6 4.2 1.7s1.6 2.6 1.6 4.4l.1.5zm-2.8-2.1c-.2-.6-.5-1.1-1.1-1.5s-1.2-.6-1.9-.6c-.8 0-1.4.2-2 .6-.4.3-.7.7-1 1.4h6zm4.4-4.2h2.4v1.4c.3-.5.6-1 1-1.2.4-.3.9-.4 1.4-.4.4 0 .7.1 1.1.3l-.9 2.4c-.3-.2-.6-.2-.8-.2-.4 0-.8.3-1.1.8-.3.5-.4 1.6-.4 3.1v4.9h-2.7v-11.1zm6 0h2.8l2.8 6.5 2.8-6.5h2.8l-4.7 11h-1.8l-4.7-11zm23.8 6.3h-8.8c.1.8.5 1.4 1 1.9.6.5 1.3.7 2.1.7 1 0 1.9-.4 2.7-1.1l2.3 1.1c-.6.8-1.3 1.4-2.1 1.8-.8.4-1.8.6-2.9.6-1.7 0-3.1-.5-4.2-1.6s-1.6-2.4-1.6-4.1c0-1.7.5-3.1 1.6-4.2s2.4-1.7 4.1-1.7c1.7 0 3.1.6 4.2 1.7s1.6 2.6 1.6 4.4v.5zm-2.8-2.1c-.2-.6-.5-1.1-1.1-1.5s-1.2-.6-1.9-.6c-.8 0-1.4.2-2 .6-.4.3-.7.7-1 1.4h6zm4.3-4.2h2.4v1.4c.3-.5.6-1 1-1.2.4-.3.9-.4 1.4-.4.4 0 .7.1 1.1.3l-.9 2.4c-.3-.2-.6-.2-.8-.2-.4 0-.8.3-1.1.8-.3.5-.4 1.6-.4 3.1v4.9h-2.7v-11.1zm268.8-2.3h3.1l2.5 7.1 2.7-7.1h1.9l2.6 7 2.5-7h3.1l-4.5 12.4h-2l-2.6-7.1-2.7 7.1h-2l-4.6-12.4zm32.5 7.2h-10c.1.9.5 1.6 1.2 2.1.6.5 1.4.8 2.4.8 1.2 0 2.2-.4 3-1.2l2.6 1.2c-.7.9-1.4 1.6-2.4 2.1s-2 .7-3.3.7c-1.9 0-3.5-.6-4.8-1.8s-1.8-2.8-1.8-4.6c0-1.9.6-3.5 1.8-4.7 1.2-1.3 2.8-1.9 4.6-1.9 2 0 3.5.6 4.8 1.9 1.2 1.3 1.8 2.9 1.8 5l.1.4zm-3.1-2.5c-.2-.7-.6-1.3-1.2-1.7s-1.3-.7-2.1-.7c-.9 0-1.6.2-2.3.7-.4.3-.8.8-1.1 1.6h6.7zm8.7-9.5v6.2c.6-.6 1.2-1 1.8-1.3.7-.3 1.4-.4 2.1-.4 1.6 0 3 .6 4.1 1.8 1.1 1.2 1.7 2.8 1.7 4.7 0 1.8-.6 3.4-1.8 4.6-1.2 1.2-2.6 1.9-4.2 1.9-.7 0-1.4-.1-2-.4-.6-.3-1.2-.7-1.8-1.3v1.3h-3.1v-17.2h3.2zm3.3 7.4c-1 0-1.8.3-2.4 1-.6.7-1 1.5-1 2.6s.3 2 1 2.7c.6.7 1.5 1 2.4 1 1 0 1.8-.3 2.4-1 .7-.7 1-1.6 1-2.6 0-1.1-.3-1.9-1-2.6-.6-.8-1.4-1.1-2.4-1.1zm16.7-.8l-1.9 1.9c-.8-.8-1.5-1.2-2.1-1.2-.4 0-.6.1-.8.2s-.3.3-.3.6c0 .2.1.3.2.5.1.1.4.3.9.6l1.1.6c1.2.6 2 1.2 2.5 1.8.4.6.7 1.3.7 2.2 0 1.1-.4 2-1.2 2.8s-1.9 1.1-3.3 1.1c-1.8 0-3.3-.7-4.3-2.1l1.9-2.1c.4.4.8.8 1.3 1 .5.3.9.4 1.3.4s.7-.1 1-.3c.3-.2.4-.4.4-.7 0-.5-.5-.9-1.4-1.4l-1.1-.5c-2-1-3-2.3-3-3.8 0-1 .4-1.8 1.1-2.5.8-.7 1.7-1 2.9-1 .8 0 1.6.2 2.3.5.7.2 1.3.7 1.8 1.4zm3.9-6.9c.5 0 1 .2 1.4.6.4.4.6.9.6 1.4 0 .6-.2 1-.6 1.4-.4.4-.8.6-1.4.6-.6 0-1-.2-1.4-.6-.4-.4-.6-.9-.6-1.5 0-.5.2-1 .6-1.4.4-.3.8-.5 1.4-.5zm-1.6 5.1h3.1v12.4H544v-12.4zm6.4-4.5h3.1v4.6h1.8v2.7h-1.8v9.7h-3.1v-9.7h-1.6v-2.7h1.6v-4.6zm19 11.7h-10c.1.9.5 1.6 1.2 2.1.6.5 1.4.8 2.4.8 1.2 0 2.2-.4 3-1.2l2.6 1.2c-.7.9-1.4 1.6-2.4 2.1-.9.4-2 .7-3.3.7-1.9 0-3.5-.6-4.8-1.8-1.2-1.2-1.8-2.8-1.8-4.6 0-1.9.6-3.5 1.8-4.7 1.2-1.3 2.8-1.9 4.6-1.9 2 0 3.5.6 4.8 1.9 1.2 1.3 1.8 2.9 1.8 5l.1.4zm-3.1-2.5c-.2-.7-.6-1.3-1.2-1.7-.6-.4-1.3-.7-2.1-.7-.9 0-1.6.2-2.3.7-.4.3-.8.8-1.1 1.6h6.7zm-298-303.3h3.1c2 0 3.5.2 4.4.7s1.8 1.3 2.4 2.4c.6 1.1.9 2.4.9 3.9 0 1.1-.2 2-.5 2.9-.3.9-.8 1.6-1.4 2.2-.6.6-1.3 1-2 1.2-.7.2-2 .3-3.7.3h-3.1v-13.6zm2.6 2.5v8.6h1.2c1.2 0 2.1-.1 2.6-.4.5-.3 1-.7 1.3-1.4s.5-1.4.5-2.4c0-1.5-.4-2.6-1.2-3.4-.7-.7-1.9-1.1-3.5-1.1h-.9zm17.9 1.1h2.5v10.1h-2.5v-1.1c-.5.5-1 .8-1.5 1-.5.2-1 .3-1.6.3-1.3 0-2.4-.5-3.4-1.5s-1.4-2.3-1.4-3.8c0-1.6.5-2.8 1.4-3.8.9-1 2-1.5 3.4-1.5.6 0 1.2.1 1.7.3.5.2 1 .6 1.5 1v-1zm-2.6 2.1c-.8 0-1.4.3-2 .8-.5.6-.8 1.3-.8 2.1 0 .9.3 1.6.8 2.2.5.6 1.2.8 1.9.8.8 0 1.5-.3 2-.8s.8-1.3.8-2.2c0-.9-.3-1.6-.8-2.1-.5-.6-1.1-.8-1.9-.8zm8-5.8h2.5v3.7h1.5v2.2h-1.5v7.9h-2.5v-7.9h-1.3v-2.2h1.3v-3.7zm12.9 3.7h2.5v10.1h-2.5v-1.1c-.5.5-1 .8-1.5 1-.5.2-1 .3-1.6.3-1.3 0-2.4-.5-3.4-1.5s-1.4-2.3-1.4-3.8c0-1.6.5-2.8 1.4-3.8.9-1 2-1.5 3.4-1.5.6 0 1.2.1 1.7.3.5.2 1 .6 1.5 1v-1zm-2.7 2.1c-.8 0-1.4.3-2 .8-.5.6-.8 1.3-.8 2.1 0 .9.3 1.6.8 2.2s1.2.8 1.9.8c.8 0 1.5-.3 2-.8.5-.6.8-1.3.8-2.2 0-.9-.3-1.6-.8-2.1-.4-.6-1.1-.8-1.9-.8zm13.4-5.8h2.5v3.7h1.5v2.2h-1.5v7.9h-2.5v-7.9h-1.3v-2.2h1.3v-3.7zm4.8 3.7h2.2v1.3c.2-.5.5-.9.9-1.1.4-.3.8-.4 1.3-.4.3 0 .7.1 1 .3l-.8 2.2c-.3-.1-.5-.2-.7-.2-.4 0-.7.2-1 .7-.3.5-.4 1.4-.4 2.8v4.6h-2.5v-10.2zm14.1 0h2.5v10.1h-2.5v-1.1c-.5.5-1 .8-1.5 1-.5.2-1 .3-1.6.3-1.3 0-2.4-.5-3.4-1.5s-1.4-2.3-1.4-3.8c0-1.6.5-2.8 1.4-3.8.9-1 2-1.5 3.4-1.5.6 0 1.2.1 1.7.3.5.2 1 .6 1.5 1v-1zm-2.6 2.1c-.8 0-1.4.3-2 .8-.5.6-.8 1.3-.8 2.1 0 .9.3 1.6.8 2.2s1.2.8 1.9.8c.8 0 1.5-.3 2-.8s.8-1.3.8-2.2c0-.9-.3-1.6-.8-2.1-.5-.6-1.1-.8-1.9-.8zm7.7-2.1h2.5v1c.6-.5 1.1-.8 1.6-1s.9-.3 1.4-.3c1 0 1.9.4 2.5 1 .6.6.9 1.5.9 2.6v6.7h-2.5V299c0-1.2-.1-2-.2-2.4-.1-.4-.3-.7-.6-.9s-.6-.3-1-.3c-.5 0-1 .2-1.3.5-.4.3-.6.8-.8 1.4-.1.3-.1 1-.1 2v4.1h-2.5v-10zm17.6 1.4l-1.6 1.6c-.6-.6-1.2-.9-1.7-.9-.3 0-.5.1-.7.2-.2.1-.2.3-.2.5 0 .1.1.3.2.4.1.1.4.3.8.5l.9.5c1 .5 1.6 1 2 1.5.4.5.5 1.1.5 1.8 0 .9-.3 1.6-1 2.2-.7.6-1.5.9-2.7.9-1.5 0-2.6-.6-3.5-1.7l1.6-1.7c.3.3.6.6 1 .8.4.2.8.3 1.1.3.3 0 .6-.1.8-.2.2-.2.3-.3.3-.6 0-.4-.4-.8-1.1-1.1l-.9-.4c-1.6-.8-2.5-1.9-2.5-3.1 0-.8.3-1.5.9-2s1.4-.8 2.4-.8c.7 0 1.3.1 1.9.4.6-.1 1.1.4 1.5.9zm2.2-1.4h2.5v1.2c.4-.5.9-.8 1.4-1.1.5-.2 1.1-.4 1.7-.4.6 0 1.2.2 1.7.5s.9.8 1.2 1.4c.4-.6.9-1 1.5-1.4.6-.3 1.2-.5 1.9-.5s1.4.2 1.9.5.9.8 1.2 1.3c.2.5.4 1.4.4 2.6v5.9h-2.6v-5.1c0-1.1-.1-1.9-.4-2.3-.3-.4-.7-.6-1.3-.6-.4 0-.8.1-1.2.4-.3.2-.6.6-.8 1-.2.4-.3 1.1-.3 2.1v4.6h-2.6v-4.9c0-.9-.1-1.6-.2-2-.1-.4-.3-.7-.6-.9-.3-.2-.6-.3-1-.3s-.8.1-1.1.4c-.3.3-.6.6-.8 1.1s-.3 1.2-.3 2.1v4.5h-2.5v-10.1zm18.9-4.2c.4 0 .8.2 1.1.5.3.3.5.7.5 1.2s-.2.8-.5 1.2c-.3.3-.7.5-1.1.5-.5 0-.8-.2-1.2-.5-.3-.3-.5-.7-.5-1.2 0-.4.2-.8.5-1.1.4-.4.7-.6 1.2-.6zm-1.3 4.2h2.5v10.1h-2.5v-10.1zm11 1.4l-1.6 1.6c-.6-.6-1.2-.9-1.7-.9-.3 0-.5.1-.7.2-.2.1-.2.3-.2.5 0 .1.1.3.2.4.1.1.4.3.8.5l.9.5c1 .5 1.6 1 2 1.5.4.5.5 1.1.5 1.8 0 .9-.3 1.6-1 2.2-.7.6-1.5.9-2.7.9-1.5 0-2.6-.6-3.5-1.7l1.6-1.7c.3.3.6.6 1 .8.4.2.8.3 1.1.3.3 0 .6-.1.8-.2.2-.2.3-.3.3-.6 0-.4-.4-.8-1.1-1.1l-.9-.4c-1.6-.8-2.5-1.9-2.5-3.1 0-.8.3-1.5.9-2s1.4-.8 2.4-.8c.7 0 1.3.1 1.9.4.6-.1 1.1.4 1.5.9zm8.4 0l-1.6 1.6c-.6-.6-1.2-.9-1.7-.9-.3 0-.5.1-.7.2-.2.1-.2.3-.2.5 0 .1.1.3.2.4.1.1.4.3.8.5l.9.5c1 .5 1.6 1 2 1.5.4.5.5 1.1.5 1.8 0 .9-.3 1.6-1 2.2-.7.6-1.5.9-2.7.9-1.5 0-2.6-.6-3.5-1.7l1.6-1.7c.3.3.6.6 1 .8.4.2.8.3 1.1.3.3 0 .6-.1.8-.2.2-.2.3-.3.3-.6 0-.4-.4-.8-1.1-1.1l-.9-.4c-1.6-.8-2.5-1.9-2.5-3.1 0-.8.3-1.5.9-2s1.4-.8 2.4-.8c.7 0 1.3.1 1.9.4.6-.1 1.1.4 1.5.9zm3.2-5.6c.4 0 .8.2 1.1.5.3.3.5.7.5 1.2s-.2.8-.5 1.2c-.3.3-.7.5-1.1.5-.5 0-.8-.2-1.2-.5-.3-.3-.5-.7-.5-1.2 0-.4.2-.8.5-1.1.3-.4.7-.6 1.2-.6zm-1.3 4.2h2.5v10.1h-2.5v-10.1zm9.6-.3c1 0 1.8.2 2.7.7.8.5 1.5 1.1 2 1.9s.7 1.7.7 2.6c0 1-.2 1.8-.7 2.7-.5.8-1.1 1.5-1.9 1.9-.8.5-1.7.7-2.7.7-1.4 0-2.7-.5-3.7-1.5s-1.5-2.3-1.5-3.8c0-1.6.6-2.9 1.7-3.9.9-.8 2.1-1.3 3.4-1.3zm0 2.4c-.8 0-1.4.3-2 .8-.5.5-.8 1.2-.8 2.1 0 .9.3 1.6.8 2.1s1.2.8 2 .8 1.5-.3 2-.8.8-1.3.8-2.1c0-.9-.3-1.6-.8-2.1s-1.2-.8-2-.8zm7.4-2.1h2.5v1c.6-.5 1.1-.8 1.6-1s.9-.3 1.4-.3c1 0 1.9.4 2.5 1 .6.6.9 1.5.9 2.6v6.7H424V299c0-1.2-.1-2-.2-2.4-.1-.4-.3-.7-.6-.9s-.6-.3-1-.3c-.5 0-1 .2-1.3.5-.4.3-.6.8-.8 1.4-.1.3-.1 1-.1 2v4.1h-2.5v-10zm-97 24.8l-2.1 1.2c-.4-.4-.8-.7-1.2-.9-.4-.2-.8-.2-1.4-.2-.9 0-1.7.3-2.3.8-.6.6-.9 1.3-.9 2.2 0 .9.3 1.6.8 2.1s1.3.8 2.2.8c1.1 0 2-.4 2.6-1.2l2 1.4c-1.1 1.4-2.6 2.1-4.6 2.1-1.8 0-3.2-.5-4.2-1.6s-1.5-2.3-1.5-3.7c0-1 .2-1.9.7-2.7.5-.8 1.2-1.5 2-1.9s1.9-.7 2.9-.7 1.9.2 2.7.6c1.2.4 1.8 1 2.3 1.7zm2.3-5.9h2.5v4.9c.5-.4 1-.7 1.5-1 .5-.2 1-.3 1.5-.3 1 0 1.8.3 2.5 1 .6.6.9 1.5.9 2.6v6.7h-2.5v-4.4c0-1.2-.1-2-.2-2.4-.1-.4-.3-.7-.6-.9-.3-.2-.6-.3-1-.3-.5 0-1 .2-1.3.5-.4.3-.6.8-.8 1.4-.1.3-.1 1-.1 2.1v4.1h-2.5v-14zm18.9 3.9h2.5v10.1h-2.5v-1.1c-.5.5-1 .8-1.5 1-.5.2-1 .3-1.6.3-1.3 0-2.4-.5-3.4-1.5s-1.4-2.3-1.4-3.8c0-1.6.5-2.8 1.4-3.8.9-1 2-1.5 3.4-1.5.6 0 1.2.1 1.7.3.5.2 1 .6 1.5 1v-1zm-2.7 2.1c-.8 0-1.4.3-2 .8-.5.6-.8 1.3-.8 2.1 0 .9.3 1.6.8 2.2.5.6 1.2.8 1.9.8.8 0 1.5-.3 2-.8s.8-1.3.8-2.2c0-.9-.3-1.6-.8-2.1-.4-.5-1.1-.8-1.9-.8zm7.8-2.1h2.5v1c.6-.5 1.1-.8 1.6-1s.9-.3 1.4-.3c1 0 1.9.4 2.5 1 .6.6.9 1.5.9 2.6v6.7h-2.5v-4.4c0-1.2-.1-2-.2-2.4-.1-.4-.3-.7-.6-.9s-.6-.3-1-.3c-.5 0-1 .2-1.3.5-.4.3-.6.8-.8 1.4-.1.3-.1 1-.1 2v4.1h-2.5v-10zm11.4 0h2.5v1c.6-.5 1.1-.8 1.6-1s.9-.3 1.4-.3c1 0 1.9.4 2.5 1 .6.6.9 1.5.9 2.6v6.7h-2.5v-4.4c0-1.2-.1-2-.2-2.4-.1-.4-.3-.7-.6-.9s-.6-.3-1-.3c-.5 0-1 .2-1.3.5-.4.3-.6.8-.8 1.4-.1.3-.1 1-.1 2v4.1h-2.5v-10zm21.5 5.8h-8.1c.1.7.4 1.3.9 1.7s1.2.6 2 .6c.9 0 1.8-.3 2.4-1l2.1 1c-.5.8-1.2 1.3-1.9 1.7-.7.4-1.6.5-2.6.5-1.6 0-2.9-.5-3.9-1.5s-1.5-2.3-1.5-3.8.5-2.8 1.5-3.8 2.2-1.5 3.7-1.5c1.6 0 2.9.5 3.9 1.5s1.5 2.4 1.5 4v.6zm-2.5-2c-.2-.6-.5-1-1-1.4s-1.1-.5-1.7-.5c-.7 0-1.3.2-1.9.6-.3.2-.6.7-.9 1.3h5.5zm4.3-7.7h2.5v14h-2.5v-14z" class="st0 st1"/><path d="M210.2 311.9h-98.4c-23.5 0-29.5-38.5 4.3-38.5-1.1-15.5 12.6-23.3 25.7-15.6 13.5-40.4 59.9-26.9 59.9 4.9v10.7h8.6c25.4.1 25.4 38.5-.1 38.5m0-47c1.9-47.9-59.5-54.8-73.4-18.6-14.7-3.3-27 6.7-28.9 18.8-35.7 4.1-30.6 55.4 3.8 55.4h98.4c36.9 0 36.9-55.6.1-55.6m-76.9 186.6s.1-.1 0 0l54.4-.1s.1 0 .1.1v43.9s0 .1-.1.1h-54.4s-.1 0-.1-.1l.1-43.9zm-3.9 48.7h62.3c.9 0 1.6-.7 1.6-1.6v-50.3c0-.9-.7-1.6-1.6-1.6h-62.3c-.9 0-1.6.7-1.6 1.6v50.3c0 .8.8 1.6 1.6 1.6m48.1 9c0-.4.7-.8 1.7-.8h13.5c.9 0 1.7.4 1.7.8v4.9c0 .4-.7.8-1.7.8h-13.5c-.9 0-1.7-.4-1.7-.8v-4.9zm46.7 39.3h-8.1v-14.7c0-.6-.5-1-1-1h-50.4c-.6 0-1-.5-1-1v-9.3h33.9c.6 0 1.1-.5 1.1-1.1v-15.2c0-.6-.5-1.1-1.1-1.1h-73.8c-.6 0-1.1.5-1.1 1.1v15.2c0 .6.5 1.1 1.1 1.1h33.6v9.3c0 .6-.5 1-1 1h-50.3c-.6 0-1 .5-1 1v14.7H97c-1.4 0-2.5 1.1-2.5 2.5v18.2c0 1.4 1.1 2.5 2.5 2.5h22.4c1.4 0 2.5-1.1 2.5-2.5V551c0-1.4-1.1-2.5-2.5-2.5h-8.1v-8.4c0-.6.5-1 1-1h44c.6 0 1 .5 1 1v8.4h-8c-1.4 0-2.5 1.1-2.5 2.5v18.2c0 1.4 1.1 2.5 2.5 2.5h22.4c1.4 0 2.5-1.1 2.5-2.5V551c0-1.4-1.1-2.5-2.5-2.5h-8.2v-8.4c0-.6.5-1 1-1h44.2c.6 0 1 .5 1 1v8.4h-8.1c-1.4 0-2.5 1.1-2.5 2.5v18.2c0 1.4 1.1 2.5 2.5 2.5H224c1.4 0 2.5-1.1 2.5-2.5V551c.2-1.3-.9-2.5-2.3-2.5" class="st1"/><path d="M445.5 293h2.5v1.2c.4-.5.9-.8 1.4-1.1.5-.2 1.1-.3 1.7-.3.6 0 1.2.2 1.7.5s.9.8 1.2 1.3c.4-.6.9-1 1.5-1.3.6-.3 1.2-.5 1.9-.5s1.3.2 1.9.5c.5.3.9.8 1.2 1.3s.4 1.4.4 2.6v5.9h-2.5V298c0-1.1-.1-1.9-.4-2.3-.3-.4-.7-.6-1.3-.6-.4 0-.8.1-1.2.4-.3.2-.6.6-.8 1-.2.4-.2 1.1-.2 2.1v4.5H452v-4.9c0-.9-.1-1.5-.2-1.9s-.3-.7-.6-.9c-.3-.2-.6-.3-1-.3s-.8.1-1.1.4c-.3.2-.6.6-.8 1-.2.4-.3 1.2-.3 2.1v4.5h-2.5V293zm22.4-.3c.9 0 1.8.2 2.7.7s1.5 1.1 1.9 1.9c.5.8.7 1.7.7 2.6 0 .9-.2 1.8-.7 2.7-.5.8-1.1 1.5-1.9 1.9s-1.7.7-2.7.7c-1.4 0-2.7-.5-3.7-1.5s-1.5-2.3-1.5-3.7c0-1.6.6-2.9 1.7-3.9s2.2-1.4 3.5-1.4zm.1 2.4c-.8 0-1.4.3-2 .8-.5.5-.8 1.2-.8 2.1 0 .9.3 1.6.8 2.1s1.2.8 2 .8 1.4-.3 2-.8c.5-.5.8-1.2.8-2.1 0-.9-.3-1.6-.8-2.1s-1.2-.8-2-.8zm9.8-6v5c.5-.5.9-.8 1.5-1 .5-.2 1.1-.3 1.7-.3 1.3 0 2.4.5 3.3 1.5.9 1 1.4 2.3 1.4 3.8s-.5 2.7-1.4 3.7c-.9 1-2.1 1.5-3.4 1.5-.6 0-1.1-.1-1.6-.3-.5-.2-1-.5-1.5-1v1.1h-2.5v-13.9h2.5zm2.6 5.9c-.8 0-1.4.3-2 .8-.5.5-.8 1.2-.8 2.1 0 .9.3 1.6.8 2.2.5.5 1.2.8 2 .8s1.4-.3 1.9-.8.8-1.3.8-2.1c0-.9-.3-1.6-.8-2.1-.4-.6-1.1-.9-1.9-.9zm8.3-6.2c.4 0 .8.2 1.1.5.3.3.5.7.5 1.2 0 .4-.2.8-.5 1.1s-.7.5-1.1.5c-.4 0-.8-.2-1.1-.5-.3-.3-.5-.7-.5-1.2 0-.4.2-.8.5-1.1s.7-.5 1.1-.5zm-1.2 4.2h2.5v10h-2.5v-10zm4.5-3.9h2.5V303H492v-13.9zm14.8 9.6h-8.1c.1.7.4 1.3.9 1.7.5.4 1.2.6 1.9.6.9 0 1.7-.3 2.4-1l2.1 1c-.5.7-1.2 1.3-1.9 1.7-.7.4-1.6.5-2.6.5-1.6 0-2.9-.5-3.8-1.5s-1.5-2.2-1.5-3.7.5-2.8 1.5-3.8 2.2-1.5 3.7-1.5c1.6 0 2.9.5 3.8 1.5 1 1 1.5 2.3 1.5 4l.1.5zm-2.5-2c-.2-.6-.5-1-1-1.4-.5-.3-1.1-.5-1.7-.5-.7 0-1.3.2-1.8.6-.3.2-.6.7-.9 1.3h5.4zm17.3-3.7h2.5v10h-2.5v-1.1c-.5.5-1 .8-1.5 1-.5.2-1 .3-1.6.3-1.3 0-2.4-.5-3.4-1.5-.9-1-1.4-2.3-1.4-3.7 0-1.5.5-2.8 1.4-3.8.9-1 2-1.5 3.3-1.5.6 0 1.2.1 1.7.3s1 .6 1.5 1v-1zm-2.7 2c-.8 0-1.4.3-1.9.8s-.8 1.3-.8 2.1c0 .9.3 1.6.8 2.1s1.2.8 1.9.8c.8 0 1.4-.3 2-.8.5-.5.8-1.3.8-2.2 0-.9-.3-1.6-.8-2.1-.5-.4-1.2-.7-2-.7zm10.2-2v1.1c.5-.5.9-.8 1.5-1s1.1-.3 1.7-.3c1.3 0 2.4.5 3.3 1.5.9 1 1.4 2.3 1.4 3.8s-.5 2.7-1.4 3.7c-.9 1-2.1 1.5-3.4 1.5-.6 0-1.1-.1-1.6-.3-.5-.2-1-.5-1.5-1v4.7h-2.5V293h2.5zm2.6 2c-.8 0-1.4.3-2 .8-.5.5-.8 1.2-.8 2.1 0 .9.3 1.6.8 2.2.5.5 1.2.8 2 .8s1.4-.3 1.9-.8c.5-.6.8-1.3.8-2.1 0-.9-.3-1.6-.8-2.1-.4-.6-1.1-.9-1.9-.9zm9.9-2v1.1c.5-.5.9-.8 1.5-1s1.1-.3 1.7-.3c1.3 0 2.4.5 3.3 1.5.9 1 1.4 2.3 1.4 3.8s-.5 2.7-1.4 3.7c-.9 1-2.1 1.5-3.4 1.5-.6 0-1.1-.1-1.6-.3-.5-.2-1-.5-1.5-1v4.7h-2.5V293h2.5zm2.6 2c-.8 0-1.4.3-2 .8-.5.5-.8 1.2-.8 2.1 0 .9.3 1.6.8 2.2.5.5 1.2.8 2 .8s1.4-.3 1.9-.8c.5-.6.8-1.3.8-2.1 0-.9-.3-1.6-.8-2.1-.5-.6-1.1-.9-1.9-.9zm7-5.9h2.5V303h-2.5v-13.9zm5.8-.3c.4 0 .8.2 1.1.5.3.3.5.7.5 1.2 0 .4-.2.8-.5 1.1s-.7.5-1.1.5c-.4 0-.8-.2-1.1-.5-.3-.3-.5-.7-.5-1.2 0-.4.2-.8.5-1.1s.7-.5 1.1-.5zm-1.2 4.2h2.5v10h-2.5v-10zm14.6 2l-2.1 1.2c-.4-.4-.8-.7-1.2-.9-.4-.2-.8-.2-1.4-.2-.9 0-1.7.3-2.3.8-.6.6-.9 1.3-.9 2.2 0 .9.3 1.5.8 2.1.6.5 1.3.8 2.2.8 1.1 0 2-.4 2.6-1.2l2 1.4c-1.1 1.4-2.6 2.1-4.5 2.1-1.8 0-3.1-.5-4.1-1.6s-1.5-2.3-1.5-3.7c0-1 .2-1.9.7-2.7.5-.8 1.2-1.5 2-1.9s1.8-.7 2.9-.7c1 0 1.9.2 2.7.6.9.4 1.6.9 2.1 1.7zm9.6-2h2.5v10H580v-1.1c-.5.5-1 .8-1.5 1-.5.2-1 .3-1.6.3-1.3 0-2.4-.5-3.4-1.5-.9-1-1.4-2.3-1.4-3.7 0-1.5.5-2.8 1.4-3.8.9-1 2-1.5 3.3-1.5.6 0 1.2.1 1.7.3s1 .6 1.5 1v-1zm-2.6 2c-.8 0-1.4.3-1.9.8s-.8 1.3-.8 2.1c0 .9.3 1.6.8 2.1s1.2.8 1.9.8c.8 0 1.4-.3 2-.8.5-.5.8-1.3.8-2.2 0-.9-.3-1.6-.8-2.1-.6-.4-1.2-.7-2-.7zm8-5.7h2.5v3.7h1.5v2.2h-1.5v7.9h-2.5v-7.9h-1.3V293h1.3v-3.7zm6.3-.5c.4 0 .8.2 1.1.5.3.3.5.7.5 1.2 0 .4-.2.8-.5 1.1s-.7.5-1.1.5c-.4 0-.8-.2-1.1-.5-.3-.3-.5-.7-.5-1.2 0-.4.2-.8.5-1.1s.7-.5 1.1-.5zm-1.2 4.2h2.5v10h-2.5v-10zm9.5-.3c.9 0 1.8.2 2.7.7s1.5 1.1 1.9 1.9c.5.8.7 1.7.7 2.6 0 .9-.2 1.8-.7 2.7-.5.8-1.1 1.5-1.9 1.9-.8.5-1.7.7-2.7.7-1.4 0-2.7-.5-3.7-1.5s-1.5-2.3-1.5-3.7c0-1.6.6-2.9 1.7-3.9 1-1 2.2-1.4 3.5-1.4zm0 2.4c-.8 0-1.4.3-2 .8-.5.5-.8 1.2-.8 2.1 0 .9.3 1.6.8 2.1s1.2.8 2 .8 1.4-.3 2-.8c.5-.5.8-1.2.8-2.1 0-.9-.3-1.6-.8-2.1s-1.2-.8-2-.8zm7.3-2.1h2.5v1c.6-.5 1.1-.8 1.5-1 .5-.2.9-.3 1.4-.3 1 0 1.8.3 2.5 1 .6.6.9 1.5.9 2.6v6.6h-2.5v-4.4c0-1.2-.1-2-.2-2.4s-.3-.7-.6-.9c-.3-.2-.6-.3-1-.3-.5 0-.9.2-1.3.5s-.6.8-.8 1.4c-.1.3-.1 1-.1 2v4h-2.5V293z" class="st0 st1"/><path d="M466 30.6h127.9v200.2H466z" class="st2"/><path d="M501.3 35.7h32.2v15h-32.2zm38 36.7V35.7h54.6zm-40 35.4V84.1h32.1zm30.6-1.7l-25.8 17.7s-4.8 5.2-3 10 15.4 8.7 20.6 9.8c5.2 1.1 33.5 7.6 33.5 7.6l5.5-5.4-23.1-16.3 8.3-8.4-16-15zm46.2 36l16.7 11.9-2.8 6-29.3-6.3s-1-1.3 0-2.6 4.1-5 4.1-5l4.6 1.1 6.7-5.1zm-87.6 32.8l-3.4-17.8s-3.6-10.4 5.8-8.3c9.4 2.2 67.6 16.7 67.6 16.7l-4.6 19.2-12 5.2-6.6-10.9-29.1-6.3 7 17.2-7.2 1.8 6.3 14.9-9.8 4.8-6.1-12.2 6.1-3.2-7-22.2-7 1.1zm-19 21.6l14.8-4.5-13.2-34.1-5.1 2.9v7.9l2.9.4 3.5 10.9-6.4 4.8zm76.4 1l4.5 12.5 42.4-13.5 1.1-21.1-20.7-6.3-5.6 19.1zm46.9-141.8c-1.7.9-17.6 13.1-17.6 13.1l4.6 5.2-23.9 26.9 7.4 7-8.3 9.1 21.5 17.2 5.6-5.4 11.7 10-1-83.1z" class="st3"/><path d="M481.4 31.4l5.1 30.1v25.2l7 22.7v17.3l-5.9 10.7-6.4-4-8.1-4.7-7.5 3.4" class="st4"/><path d="M494.2 113.1c0-3.8-3.1-7-6.8-7-3.8 0-6.8 3.3-6.8 7 0 1.2.3 2.5.9 3.5l6 11 6-11c.4-.9.7-2.3.7-3.5zm-6.8 3.2c-1.9 0-3.5-1.6-3.5-3.5s1.6-3.5 3.5-3.5 3.5 1.6 3.5 3.5c-.1 2-1.6 3.5-3.5 3.5z" class="st5"/><path d="M486.7 78.3l61.3-2 12.7-3.9 34.4-25" class="st6"/><path d="M591.5 47.4l-97.8 77.8-7 18.2-6.2 6.3-14.8 5" class="st6"/><path d="M489 137.4l35.8 13.6 53.9 12.9 15.2 5.2m-93.2 61.7l-20.2-66.3-9.1-11.7m9.1-4.2l.6 17.9" class="st6"/><path d="M496.1 215.5l41.5-16.2 23.2-11.2 10.3-26m-53.9 67.6l76.7-29.3-6.5 29.3m-45.5-32.5l8.7 19.7m-49.9-3.2l6.5 16.6" class="st6"/><path d="M544.2 202.3l.2 12.1 10.2-5.1z" class="st7"/><circle cx="586.4" cy="64.5" r="1.7" class="st7"/><circle cx="591.5" cy="99.9" r="1.7" class="st7"/><circle cx="570.4" cy="85.4" r="1.7" class="st8"/><circle cx="575.2" cy="92.5" r="1.7" class="st9"/><circle cx="570.4" cy="119.4" r="1.7" class="st9"/><circle cx="585.6" cy="102.8" r="1.7" class="st9"/><circle cx="589.8" cy="120.3" r="1.7" class="st8"/><circle cx="580.2" cy="157" r="1.7" class="st8"/><circle cx="589.8" cy="187.1" r="1.7" class="st8"/><circle cx="475.2" cy="181.4" r="1.7" class="st8"/><circle cx="473.5" cy="144.5" r="1.7" class="st8"/><circle cx="561.9" cy="168.2" r="1.7" class="st8"/><circle cx="560.7" cy="110.2" r="1.7" class="st8"/><circle cx="475.2" cy="90" r="1.7" class="st8"/><circle cx="508.1" cy="94.2" r="1.7" class="st8"/><circle cx="505.6" cy="67.4" r="1.7" class="st8"/><circle cx="531.4" cy="33.1" r="1.7" class="st8"/><path d="M560.7 66.4c0-3.8-3.1-6.8-6.8-6.8-3.8 0-6.8 3.1-6.8 6.8 0 1.2.3 2.3.9 3.3l6 11 6-11c.4-1 .7-2.1.7-3.3zm-6.8 3.4c-1.9 0-3.5-1.6-3.5-3.5s1.6-3.5 3.5-3.5 3.5 1.6 3.5 3.5c-.1 2-1.6 3.5-3.5 3.5zm-58.6-15.5c0-3.8-3.1-6.9-6.8-6.9-3.8 0-6.8 3.1-6.8 6.9 0 1.2.3 2.4.9 3.4l6 11 6-11c.4-1 .7-2.2.7-3.4zm-6.8 3.4c-1.9 0-3.5-1.6-3.5-3.5s1.6-3.5 3.5-3.5 3.5 1.6 3.5 3.5c-.1 1.9-1.6 3.5-3.5 3.5z" class="st10"/><path d="M549.1 80.3l-34.8 27.3L553 147v11.7l16.2 2.6-8.5 26.8-19.3 7.2 1 4" class="st11"/><path d="M498.8 188.3c0-3.8-3.1-6.9-6.8-6.9-3.8 0-6.8 3.1-6.8 6.9 0 1.2.3 2.4.9 3.4l6 11 6-11c.4-1 .7-2.2.7-3.4zm-6.9 3.4c-1.9 0-3.5-1.6-3.5-3.5s1.6-3.5 3.5-3.5 3.5 1.6 3.5 3.5c0 2-1.6 3.5-3.5 3.5z" class="st5"/><path d="M594.1 221.3H467.6V39.7h126.5v181.6zm-63.6 38.5c-5.8 0-10.5-4.7-10.5-10.5s4.7-10.5 10.5-10.5 10.5 4.7 10.5 10.5c-.3 5.8-4.9 10.5-10.5 10.5M504 16.7h53c2 0 3.5 1.5 3.5 3.5s-1.5 3.5-3.5 3.5h-53c-2 0-3.5-1.5-3.5-3.5 0-1.8 1.4-3.5 3.5-3.5M583.6.6H478c-11.1 0-20.1 9-20.1 20.1v236.4c0 11.1 9 20.1 20.1 20.1h105.5c11.1 0 20.1-9 20.1-20.1V20.8c.1-11.1-9-20.2-20-20.2" class="st12"/><path d="M625.3 111.7c-.9-1.2-2.3-1.2-3.5-.3l-4.1 3.8c-.9.9-1.2 2.3-.3 3.2 4.7 5.8 7.3 13.1 7.3 21s-2.6 15.2-7.3 21c-.9.9-.6 2.3.3 3.2l4.1 3.8c.9.9 2.6.9 3.5-.3 6.1-7.6 9.6-17.2 9.6-27.4.3-11.1-3.5-20.7-9.6-28" class="st13"/><path d="M638.1 100c-.9-.9-2.3-1.2-3.2-.3l-4.1 3.8c-.9.9-.9 2.3-.3 3.2 7.3 8.7 11.7 20.1 11.7 32.4 0 12.2-4.4 23.6-11.7 32.4-.9.9-.9 2.3.3 3.2l4.1 3.8c.9.9 2.3.9 3.2-.3 9-10.5 14.3-24.2 14.3-39.1-.3-14.9-5.6-28.6-14.3-39.1m-194.4 14.9l-4.1-3.8c-.9-.9-2.6-.9-3.5.3-6.1 7.6-9.6 17.2-9.6 27.4 0 10.5 3.8 20.1 9.6 27.4.9 1.2 2.3 1.2 3.5.3l4.1-3.8c.9-.9 1.2-2.3.3-3.2-4.7-5.8-7.3-13.1-7.3-21s2.6-15.2 7.3-21c.8-.3.5-1.7-.3-2.6" class="st13"/><path d="M419.7 139.1c0-12.2 4.4-23.6 11.7-32.4.9-.9.9-2.3-.3-3.2l-4.1-3.8c-.9-.9-2.3-.9-3.2.3-9 10.5-14.3 24.2-14.3 39.1s5.2 28.6 14.3 39.1c.9.9 2.3 1.2 3.2.3l4.1-3.8c.9-.9.9-2.3.3-3.2-7.3-8.8-11.7-20.2-11.7-32.4" class="st13"/><path d="M502.3 560.9h48.9c3.8 0 7.3-2.7 7.3-5.8v-1.4h-63.1v1.4c0 3.1 3.1 5.8 6.9 5.8m127.6-48.6c0 .9-.7 1.8-1.4 1.8H425.4c-.7 0-1.4-.9-1.4-1.8V376.4c0-.9.7-1.8 1.4-1.8h203.5c.7 0 1.4.9 1.4 1.8v135.9h-.4zm9-140.8c0-5.4-3.5-10.3-8-10.3h-208c-4.2 0-8 4.5-8 10.3v162.4h223.6V371.5h.4z" class="st12"/><path d="M676.6 560v-5.8H561.2v1.3c0 4.9-4.5 9-9.7 9h-49.2c-5.2 0-9.7-4.1-9.7-9v-1.3H377.2v5.8c0 6.3 3.8 11.7 9 11.7H668c4.5-.4 8.6-5.4 8.6-11.7m-262.7-22.5l-30.1 13.1h286.3l-30.2-13.1z" class="st12"/><path d="M423.8 374.5h206.9v140.2H423.8z" class="st1"/><path d="M422.5 374.5h209.8v140.6H422.5z" class="st14"/><path d="M422.5 402.3h208.3v112.8H422.5z" class="st15"/><path d="M430.9 391.5h20.5v7.8h-20.5zm57.9 3.9h13.6v1.9h-13.6zm21.6 0h19.8v1.9h-19.8z" class="st16"/><path d="M468 395.4h13.2v1.9H468z" class="st10"/><path d="M526.5 487.1l-1.9-10s-2.1-5.9 3.2-4.7c5.3 1.2 38.1 9.4 38.1 9.4l-2.6 10.8-6.8 2.9-3.7-6.1-16.4-3.5 3.9 9.7-4 1 3.5 8.4-5.5 2.7-3.4-6.9 3.4-1.8-4-12.5-3.8.6zm20.4-45.6L534 454.1s-.9.7.9 4.9 5.3 4.9 8.2 6.2 25.9 7 25.9 7l5.3 1 5.8-4.9-3.8-3.5-4 2.4-11.3-9.9 4.8-5.9 7.1 5.9 2.9-1.4-20.8-18.4-5.3 3.8-2.8.2zm-12.9-2.6v-19.2h22.8l-1.7 3.3-9.8 6.3-6.7 7.1zm27.1-36.6l.8 9.5 4-1.1 8.2-3.6 4-3.9zm32.3 1.2L580 417.8v6.1l-8.6 11 6.8 8-4.5 6.6 14.4 11.1 3.1-5.2 20.4 17.8-.9 4.4.9 4.2 10.1 6.2 5.2-3.7 4.1-5.6v-27.8l-4.1-5 3.9-10.4-4.4-6.8-15.5-17.2 9.7-9.8h-26.8zm-127.7 23.3l3.9-9.1 3.8 3.4 9.3-1.3 19.7-3.8 17.9-5.5 7.1-2.7 1.3-6.1h-62.9zm.2 37.3l31.4 4.3 5.1 2.5-3.6 4.8h-5l-12.6-1h-6.4l-9.1-1.6zm39.7 17.5l3.4 5.5v5.6h2.8l-1.4-4.8 2.6-.7 1.6 4.1 3.9-.4-4.8-12.4zm3.9 17.5l3.7 8.5 8.7-3-3.4-10.6zm56.3 10.2l12.3-8.4 7.3-12.8 30.6 7.7v3.1l-21.4 8.7-13.1 7-12.9.4z" class="st3"/><path d="M521 470.6l-.6 12.6m-16-19.4l1.8 5.7 2.2 3.7h4.4l6.4-1.1s3.2-3.1 3.5-3.9 1.5-5.5 1.5-5.5l-3.1-4-4.6-2.6h-5.7l-2.8 3-3.6 4.7z" class="st4"/><path d="M523.2 462.8l16.5 5.5 91.1 24.6m-106.6-31.6l8.9-11.7 51.5-46.1m-53 48l-2.9-12.6-2.7-12-1.8-12.5 1.9-6.1m-1.7 8l48.1-1.9M454 515l58-41.2 8.4 9.4L530 515" class="st4"/><path d="M465.7 458.5l28.7 4.9 11.1 3.9M465.7 431l6.4-2.8s3.8-1.8 6.4.5 4.1 8.9 4.1 8.9l3.1 11s2.4 9.8 4.8 10 12 1.4 12 1.4l8.3-3.5 13.4-4.9 4.6-5.5s-.3-9.5 0-10.1" class="st14"/><path d="M610.1 484.9c0-1.9-1.6-3.5-3.5-3.5s-3.5 1.6-3.5 3.6c0 .6.2 1.8.4 1.8l3.1 5.7 3.1-5.7c.3-.1.4-1.3.4-1.9zm-3.5 1.7c-1 0-1.8-.8-1.8-1.8s.8-1.8 1.8-1.8 1.8.8 1.8 1.8-.8 1.8-1.8 1.8zm-82.4-39.8c0-1.9-1.6-3.6-3.5-3.6s-3.5 1.7-3.5 3.6c0 .6.2 1.8.4 1.8l3.1 5.7 3.1-5.7c.2.1.4-1.2.4-1.8zm-3.5 1.6c-1 0-1.8-.8-1.8-1.8s.8-1.8 1.8-1.8 1.8.8 1.8 1.8-.8 1.8-1.8 1.8zm-5.2 11.5c0-1.9-1.6-3.6-3.5-3.6s-3.5 1.7-3.5 3.6c0 .6.2 1.8.4 1.8l3.1 5.7 3.1-5.7c.3 0 .4-1.2.4-1.8zm-3.5 1.6c-1 0-1.8-.8-1.8-1.8s.8-1.8 1.8-1.8 1.8.8 1.8 1.8-.8 1.8-1.8 1.8zm15.9 30.6c0-1.9-1.6-3.4-3.5-3.4s-3.5 1.5-3.5 3.4c0 .6.2 1.6.4 1.6l3.1 5.7 3.1-5.7c.3 0 .4-1 .4-1.6zm-3.5 1.9c-1 0-1.8-.8-1.8-1.8s.8-1.8 1.8-1.8 1.8.8 1.8 1.8-.8 1.8-1.8 1.8zm-52.9-47c0-1.9-1.6-3.5-3.5-3.5s-3.5 1.6-3.5 3.5c0 .6.2 1.7.4 1.7l3.1 5.7 3.1-5.7c.2 0 .4-1.1.4-1.7zm-3.5 1.8c-1 0-1.8-.8-1.8-1.8s.8-1.8 1.8-1.8 1.8.8 1.8 1.8-.8 1.8-1.8 1.8z" class="st5"/><path d="M493.7 499.8c0-1.9-1.6-3.6-3.5-3.6s-3.5 1.7-3.5 3.7c0 .6.2 1.9.4 1.9l3.1 5.7 3.1-5.7c.3-.1.4-1.4.4-2zm-3.5 1.5c-1 0-1.8-.8-1.8-1.8s.8-1.8 1.8-1.8 1.8.8 1.8 1.8-.8 1.8-1.8 1.8zm-8.6-80.7c0-1.9-1.6-3.7-3.5-3.7s-3.5 1.9-3.5 3.8c0 .6.2 2 .4 2l3.1 5.7 3.1-5.7c.2 0 .4-1.5.4-2.1zm-3.5 1.3c-1 0-1.8-.8-1.8-1.8s.8-1.8 1.8-1.8 1.8.8 1.8 1.8-.9 1.8-1.8 1.8z" class="st10"/><path d="M569.5 419.9l-24.5 21 29 28.1v8.9l10.8 2.5-6.7 20.5-5.6 2.4" class="st17"/><path d="M569.8 503.7h-6l3 6.1z" class="st7"/><path d="M580.1 407.1h45.4V449h-45.4z" class="st18"/><path d="M426.1 404h39v106.2h-39z" class="st19"/><circle cx="568.9" cy="420.4" r="3.5" class="st20"/><circle cx="568.9" cy="420.4" r="5.3" class="st20"/><circle cx="568.9" cy="420.4" r="8" class="st20"/><path d="M573.1 408.8c0-1.9-1.6-3.6-3.5-3.6s-3.5 1.7-3.5 3.7c0 .6.2 1.9.4 1.9l3.1 5.7 3.1-5.7c.2-.1.4-1.4.4-2zm-3.5 1.5c-1 0-1.8-.8-1.8-1.8s.8-1.8 1.8-1.8 1.8.8 1.8 1.8-.8 1.8-1.8 1.8z" class="st10"/><path d="M430.9 460h17.2" class="st17"/><path d="M430.9 447.5h20.5m-20.5 25h20.5m-20.5 4.1H454m-23.1-12.5h20.5" class="st21"/><path d="M430.9 468.3h30.5" class="st22"/><path d="M430.9 451.7h16.2" class="st21"/><path d="M430.9 455.8h20.5" class="st22"/><path d="M430.9 414.3h20.5m-20.5 4.2l17.2-.1m-17.2 4.2h26.2m-26.2 4.2h20.5" class="st21"/><path d="M430.9 480.8h20.5m-20.5 4.1h16.2" class="st22"/><path d="M430.9 489.1h26.8m-26.8 4.1h20.5m-20.5 4.2h16.2m-16.2 4.1h28.2" class="st21"/><path d="M430.9 443.4h22.5" class="st17"/><path d="M430.9 439.2h20.5" class="st23"/><path d="M430.9 435.1h17.2" class="st17"/><path d="M584.3 424H619m-34.7 4.2h27.4" class="st21"/><path d="M584.3 432.3H619" class="st22"/><path d="M584.3 419.9h37.9" class="st17"/><path d="M584.3 415.7H619" class="st23"/><path d="M584.3 411.6h29m-182.4 19.3h14.7" class="st17"/><circle cx="541.9" cy="473.2" r="1.7" class="st9"/><circle cx="528.7" cy="501.9" r="1.7" class="st9"/><circle cx="469.2" cy="462.8" r="1.7" class="st9"/><circle cx="538.6" cy="408.3" r="1.7" class="st8"/><circle cx="515.7" cy="425.7" r="1.7" class="st8"/><circle cx="504.4" cy="439.2" r="1.7" class="st8"/><circle cx="476.4" cy="466.1" r="1.7" class="st8"/><circle cx="591.7" cy="477.8" r="1.7" class="st8"/><circle cx="578.1" cy="485.7" r="1.7" class="st8"/><circle cx="515.7" cy="496.2" r="1.7" class="st8"/><path d="M265.6 245.9l50.4-34.4-7.3-4.8 72-26.3-50.5 34 7.5 4.7zm0 113.8l50.4 34.5-7.3 4.8 72 26.2-50.5-33.9 7.5-4.8zM2.9 290.3h30V277l26.5 26.6-26.5 26.5v-13.3h-30zm171 71.7v30h13.3l-26.6 26.5-26.5-26.5h13.3v-30z" class="st13"/></svg>