<svg xmlns="http://www.w3.org/2000/svg" id="Layer_1" viewBox="0 0 234 607.6"><style>.st0{fill:#2F4666;} .st1{fill:#40A529;} .st2{fill:#808184;} .st3{fill:#A6640B;} .st4{fill:#05B9E4;} .st5{fill:#F6921E;} .st6{fill:#C61D23;} .st7{fill:#782B8F;} .st8{fill:#FFFFFF;} .st9{fill:#929497;} .st10{clip-path:url(#SVGID_4_);}</style><path d="M44.5 84.8h4c2.2 0 3.7.2 4.7.6 1 .4 1.7 1 2.2 1.9.5.9.8 2 .8 3.2 0 1.4-.4 2.5-1.1 3.4-.7.9-1.7 1.5-2.9 1.9-.7.2-2 .3-3.9.3v8.3h-3.7V84.8zm3.8 7.7h1.2c.9 0 1.6-.1 2-.2.4-.1.7-.4.9-.7.2-.3.3-.7.3-1.1 0-.8-.3-1.3-.9-1.7-.4-.3-1.2-.4-2.4-.4h-1.1v4.1zm21.9-2.6h3.7v14.6h-3.7V103c-.7.7-1.4 1.2-2.1 1.5-.7.3-1.5.4-2.3.4-1.9 0-3.5-.7-4.9-2.2-1.4-1.5-2.1-3.3-2.1-5.4 0-2.2.7-4.1 2-5.5 1.3-1.4 2.9-2.2 4.8-2.2.9 0 1.7.2 2.5.5s1.5.8 2.1 1.5v-1.7zm-3.8 3c-1.1 0-2.1.4-2.8 1.2-.7.8-1.1 1.8-1.1 3.1s.4 2.3 1.1 3.1c.8.8 1.7 1.2 2.8 1.2 1.1 0 2.1-.4 2.9-1.2s1.1-1.8 1.1-3.1-.4-2.3-1.1-3.1c-.8-.8-1.8-1.2-2.9-1.2zm10.3-3h3.1v1.8c.3-.7.8-1.3 1.4-1.6.6-.4 1.2-.6 1.8-.6.5 0 1 .1 1.5.4L83.4 93c-.4-.2-.8-.3-1.1-.3-.6 0-1 .3-1.4 1-.4.7-.6 2.1-.6 4.1v6.6h-3.6V89.9zm9.7-5.6H90V96l5.4-6h4.6l-6.3 7 7 7.6h-4.5L90 97.8v6.7h-3.7V84.3zm17.3-.3c.6 0 1.2.2 1.6.7.5.5.7 1 .7 1.7s-.2 1.2-.7 1.7c-.5.5-1 .7-1.6.7-.6 0-1.2-.2-1.7-.7-.5-.5-.7-1-.7-1.7 0-.6.2-1.2.7-1.6.5-.6 1-.8 1.7-.8zm-1.9 5.9h3.7v14.6h-3.7V89.9zm7 0h3.7v1.5c.8-.7 1.6-1.2 2.3-1.5s1.4-.4 2.1-.4c1.4 0 2.7.5 3.7 1.5.8.9 1.3 2.1 1.3 3.8v9.6h-3.6V98c0-1.7-.1-2.9-.2-3.5-.2-.6-.4-1-.8-1.3-.4-.3-.9-.4-1.4-.4-.7 0-1.4.2-1.9.7s-.9 1.2-1.1 2.1c-.1.5-.2 1.4-.2 3v5.8H109V89.9zm27.2 0h3.6v12.5c0 2.5-.5 4.3-1.5 5.4-1.3 1.6-3.3 2.4-6 2.4-1.4 0-2.6-.2-3.6-.5s-1.8-.9-2.5-1.6-1.2-1.5-1.5-2.5h4c.4.4.8.7 1.4.9s1.2.3 2 .3c1 0 1.8-.2 2.4-.5.6-.3 1-.7 1.3-1.2s.4-1.3.4-2.5c-.6.6-1.3 1.1-2 1.4-.7.3-1.5.4-2.4.4-2 0-3.6-.7-5-2.1-1.3-1.4-2-3.2-2-5.4 0-2.3.7-4.2 2.1-5.6 1.3-1.3 2.8-1.9 4.6-1.9.8 0 1.6.2 2.4.5.7.3 1.5.8 2.2 1.5v-1.5zm-3.8 3.1c-1.2 0-2.1.4-2.9 1.2s-1.1 1.7-1.1 2.9.4 2.2 1.2 3 1.7 1.2 2.9 1.2c1.1 0 2.1-.4 2.8-1.1.7-.8 1.1-1.8 1.1-3s-.4-2.2-1.1-3c-.7-.8-1.7-1.2-2.9-1.2zm-84.7 31.9l-2.3 2.3c-.9-.9-1.8-1.4-2.5-1.4-.4 0-.7.1-1 .3-.2.2-.3.4-.3.6 0 .2.1.4.2.5.1.2.5.4 1.1.7l1.3.7c1.4.7 2.4 1.4 2.9 2.1.5.7.8 1.6.8 2.5 0 1.3-.5 2.4-1.4 3.2-1 .9-2.2 1.3-3.8 1.3-2.1 0-3.8-.8-5.1-2.5l2.2-2.4c.4.5.9.9 1.5 1.2.6.3 1.1.5 1.5.5.5 0 .9-.1 1.2-.3s.4-.5.4-.8c0-.6-.5-1.1-1.6-1.6l-1.2-.6c-2.4-1.2-3.5-2.7-3.5-4.5 0-1.2.4-2.1 1.3-3 .9-.8 2-1.2 3.4-1.2.9 0 1.8.2 2.7.6s1.7 1 2.2 1.8zm4.6-8.1c.6 0 1.2.2 1.6.7.5.5.7 1 .7 1.7s-.2 1.2-.7 1.7c-.5.5-1 .7-1.6.7-.6 0-1.2-.2-1.7-.7-.5-.5-.7-1-.7-1.7 0-.6.2-1.2.7-1.6.5-.5 1.1-.8 1.7-.8zm-1.8 6H54v14.6h-3.7v-14.6zm7.4-5.3h3.7v5.4h2.2v3.1h-2.2v11.4h-3.7V126h-1.9v-3.1h1.9v-5.4zm7.8 5.3h3.7v7c0 1.4.1 2.3.3 2.8.2.5.5.9.9 1.2.4.3.9.4 1.5.4s1.1-.1 1.5-.4.7-.7.9-1.3c.2-.4.2-1.3.2-2.7v-7.1h3.7v6.2c0 2.5-.2 4.3-.6 5.2-.5 1.1-1.2 2-2.2 2.6-1 .6-2.2.9-3.6.9-1.6 0-2.9-.4-3.9-1.1-1-.7-1.7-1.7-2.1-3-.3-.9-.4-2.5-.4-4.8v-5.9zm27.2 0h3.7v14.6h-3.7v-1.5c-.7.7-1.4 1.2-2.1 1.5-.7.3-1.5.4-2.3.4-1.9 0-3.5-.7-4.9-2.2-1.4-1.5-2.1-3.3-2.1-5.4 0-2.2.7-4.1 2-5.5 1.3-1.4 2.9-2.2 4.8-2.2.9 0 1.7.2 2.5.5s1.5.8 2.1 1.5v-1.7zm-3.9 3c-1.1 0-2.1.4-2.8 1.2-.7.8-1.1 1.8-1.1 3.1s.4 2.3 1.1 3.1c.8.8 1.7 1.2 2.8 1.2 1.1 0 2.1-.4 2.9-1.2s1.1-1.8 1.1-3.1-.4-2.3-1.1-3.1c-.7-.8-1.7-1.2-2.9-1.2zm11.7-8.3h3.7v5.4h2.2v3.1h-2.2v11.4h-3.7V126h-1.9v-3.1h1.9v-5.4zm9.2-.7c.6 0 1.2.2 1.6.7.5.5.7 1 .7 1.7s-.2 1.2-.7 1.7c-.5.5-1 .7-1.6.7-.6 0-1.2-.2-1.7-.7-.5-.5-.7-1-.7-1.7 0-.6.2-1.2.7-1.6.5-.5 1-.8 1.7-.8zm-1.8 6h3.7v14.6h-3.7v-14.6zm13.8-.3c1.4 0 2.7.3 3.9 1s2.2 1.6 2.8 2.8 1 2.4 1 3.8-.3 2.7-1 3.9-1.6 2.1-2.8 2.8c-1.2.7-2.5 1-3.9 1-2.1 0-3.9-.7-5.3-2.2-1.5-1.5-2.2-3.3-2.2-5.4 0-2.3.8-4.2 2.5-5.7 1.4-1.4 3.1-2 5-2zm0 3.4c-1.1 0-2.1.4-2.8 1.2-.8.8-1.1 1.8-1.1 3 0 1.3.4 2.3 1.1 3.1.7.8 1.7 1.2 2.8 1.2s2.1-.4 2.9-1.2c.8-.8 1.1-1.8 1.1-3.1 0-1.2-.4-2.3-1.1-3-.8-.8-1.7-1.2-2.9-1.2zm10.7-3.1h3.7v1.5c.8-.7 1.6-1.2 2.3-1.5s1.4-.4 2.1-.4c1.4 0 2.7.5 3.7 1.5.8.9 1.3 2.1 1.3 3.8v9.6h-3.6V131c0-1.7-.1-2.9-.2-3.5-.2-.6-.4-1-.8-1.3-.4-.3-.9-.4-1.4-.4-.7 0-1.4.2-1.9.7s-.9 1.2-1.1 2.1c-.1.5-.2 1.4-.2 3v5.8h-3.7v-14.6zM95.8 524.6h64.9c1.6 0 4 .8 4 1.6.8 1.6.8 4 0 5.6 0 .8-2.4 1.6-4 1.6h-59.3c-6.4 0-5.6-.8-5.6 5.6v53c0 6.4-.8 6.4 5.6 6.4h59.3c4 0 6.4 3.2 4 7.2 0 .8-2.4.8-3.2.8H90.2c-2.4 0-3.2-.8-3.2-2.4V456.4c0-4.8 0-4.8 4.8-4.8h68.9c4 0 4.8.8 4.8 4 0 4-1.6 4.8-4.8 4.8-20-.8-40.1 0-60.1-.8-4 0-4.8 1.6-4.8 5.6v59.4z" class="st0"/><path d="M86.9 533.5H21.7c-1.6 0-4-.8-4-.8-.8-2.4-.8-4.8 0-6.4 0-.8 2.4-1.6 4-1.6h59.6c7.2 0 5.6.8 5.6-5.6v-52.9c0-6.4 1.6-5.6-5.6-5.6H21.7c-4 0-6.4-4-4-7.2 0-.8 2.4-1.6 3.2-1.6h71.7c2.4 0 3.2.8 3.2 3.2v146.8c0 4.8 0 4.8-4.8 4.8H21.7c-3.2 0-4.8-.8-4.8-4s1.6-4 4.8-4c20.1 0 40.3-.8 60.4 0 4 0 5.6-1.6 5.6-4.8-.8-18.5-.8-36.9-.8-55.4v-4.9z" class="st0"/><path d="M71.7 473.2c4 0 4.8.8 6.4 2.4 1.6 1.6 1.6 8 1.6 8-8.8-2.3-8-10.4-8-10.4m-13.6.9l-8.8 3.2h-21l-4-3.2h33.8zM8.2 509.4H6.6v-32.9h1.6v32.9zm20.1-.9h20.9l8.8 4H24.3l4-4zm43.4 4.1s-.8-8 8-10.4c0 0 0 7.2-1.6 8.8-1.5.8-2.3 1.6-6.4 1.6m-46.6-31.3v24.9l-7.2 3.2v-32.1l7.2 4zm35.4-4.8s3.2 3.2 3.2 16.8c0 12.8-3.2 16-3.2 16l-12.9-4s4-12.9 0-24.1l12.9-4.7zm0-9.7c-.8 0-1.6.8-1.6 1.6v3.2H9.1c-4 0-7.2 4-7.2 8v27.3c0 4 3.2 7.2 7.2 7.2h49.8v3.2c0 1.6.8 2.4 1.6 2.4s1.6-.8 1.6-2.4v-3.2h11.3c4 0 7.2-3.2 7.2-7.2v-27.3c0-4-3.2-8-7.2-8H62.1v-3.2c0-.8-.8-1.6-1.6-1.6" class="st1"/><path d="M109.4 587c-4 0-4-.8-5.6-2.4-1.6-1.6-1.6-8-1.6-8 8.8 2.4 7.2 10.4 7.2 10.4m14.4-.8l8-3.2h20.9l4.8 3.2h-33.7zm49.1-35.3h2.4v32.9h-2.4v-32.9zm-20.1.8h-20.9l-8-4h33.8l-4.9 4zm-42.6-4s.8 8-8 10.4c0 0-.8-7.2 1.6-8.8 1.5-.8 1.5-1.6 6.4-1.6M156 579v-24.9l8-3.2V583l-8-4zm-34.6 4.8s-3.2-3.2-3.2-16.8c0-12.8 3.2-16 3.2-16l12.9 4s-4 12.9 0 24.9l-12.9 3.9zm0 9.7c.8 0 1.6-.8 1.6-1.6v-3.2h49c4.8 0 8-4 8-8v-26.5c0-4.8-3.2-8-8-8h-49V543c0-1.6-.8-2.4-1.6-2.4s-1.6.8-1.6 2.4v3.2h-11.3c-4 0-7.2 3.2-7.2 8v26.5c0 4 3.2 8 7.2 8h11.3v3.2c0 .8.8 1.6 1.6 1.6" class="st2"/><path d="M95.8 378.6h64.9c1.6 0 4 0 4 .8.8 2.4.8 4.8 0 6.4 0 .8-2.4.8-4 .8h-59.3c-6.4 0-5.6 0-5.6 6.4v53c0 6.4-.8 5.6 5.6 5.6h59.3c4 0 6.4 4 4 7.2 0 .8-2.4 1.6-3.2 1.6H90.2c-2.4 0-3.2-.8-3.2-3.2V310.4c0-4.8 0-4.8 4.8-4.8h68.9c4 0 4.8.8 4.8 4s-1.6 4-4.8 4h-60.1c-4 0-4.8.8-4.8 4.8v60.2z" class="st0"/><path d="M86.9 387.4H21.7c-1.6 0-4-.8-4-1.6-.8-1.6-.8-4 0-6.4 0 0 2.4-.8 4-.8h59.6c7.2 0 5.6.8 5.6-5.6v-53.8c0-5.6 1.6-5.6-5.6-5.6H21.7c-4 0-6.4-3.2-4-7.2 0-.8 2.4-.8 3.2-.8h71.7c2.4 0 3.2.8 3.2 2.4v146.8c0 5.6 0 5.6-4.8 5.6H21.7c-3.2 0-4.8-.8-4.8-4 0-4 1.6-4.8 4.8-4.8h60.4c4 0 5.6-.8 5.6-4.8-.8-18.5-.8-36.9-.8-54.6v-4.8z" class="st0"/><path d="M109.4 366.5c-4 0-4-.8-5.6-2.4-1.6-.8-1.6-8-1.6-8 8.8 2.4 7.2 10.4 7.2 10.4m14.4 0l8-4h20.9l4.8 4h-33.7zm49.1-35.9h2.4v32.7h-2.4v-32.7zm-20.1.8h-20.9l-8-3.2h33.8l-4.9 3.2zm-42.6-4s.8 8.8-8 10.4c0 0-.8-6.4 1.6-8 1.5-1.6 1.5-2.4 6.4-2.4m45.8 31.9v-25.5l8-3.2v31.9l-8-3.2zm-34.6 4s-3.2-3.2-3.2-15.9c0-13.6 3.2-16.7 3.2-16.7l12.9 4s-4 13.5 0 24.7l-12.9 3.9zm0 9.5c.8 0 1.6-.8 1.6-1.6V368h49c4.8 0 8-3.2 8-7.2v-27.1c0-4-3.2-8-8-8h-49v-3.2c0-.8-.8-1.6-1.6-1.6s-1.6.8-1.6 1.6v3.2h-11.3c-4 0-7.2 4-7.2 8v27.1c0 4 3.2 7.2 7.2 7.2h11.3v3.2c0 .9.8 1.6 1.6 1.6" class="st3"/><path d="M71.7 327.4c4 0 4.8.8 6.4 1.6 1.6 1.6 1.6 8.8 1.6 8.8-8.8-2.4-8-10.4-8-10.4m-13.6 0l-8.8 4h-21l-4-4h33.8zM8.2 363.3H6.6v-32.7h1.6v32.7zm20.1-.8h20.9l8.8 3.2H24.3l4-3.2zm43.4 4s-.8-8.8 8-10.4c0 0 0 6.4-1.6 8-1.5 1.6-2.3 2.4-6.4 2.4m-46.6-31.9v25.5l-7.2 3.2v-31.9l7.2 3.2zm35.4-4s3.2 3.2 3.2 15.9c0 13.6-3.2 16.7-3.2 16.7l-12.9-4s4-13.5 0-24.7l12.9-3.9zm0-9.6c-.8 0-1.6.8-1.6 1.6v3.2H9.1c-4 0-7.2 3.2-7.2 7.2v27.1c0 4 3.2 8 7.2 8h49.8v3.2c0 .8.8 1.6 1.6 1.6s1.6-.8 1.6-1.6v-3.2h11.3c4 0 7.2-4 7.2-8V333c0-4-3.2-7.2-7.2-7.2H62.1v-3.2c0-.8-.8-1.6-1.6-1.6" class="st4"/><path d="M95.8 232.7h64.9c1.6 0 4 0 4 .8.8 1.6.8 4 0 6.4 0 .8-2.4.8-4 .8h-59.3c-6.4 0-5.6 0-5.6 5.6V300c0 5.6-.8 5.6 5.6 5.6h59.3c4 0 6.4 3.2 4 7.2 0 .8-2.4.8-3.2.8H90.2c-2.4.8-3.2-.8-3.2-2.4V164.7c0-5.6 0-5.6 4.8-5.6 23.2 0 46.5.8 68.9 0 4 0 4.8.8 4.8 4.8 0 3.2-1.6 4-4.8 4h-60.1c-4 0-4.8.8-4.8 4.8v60z" class="st0"/><path d="M86.9 240.7H21.7c-1.6 0-4 0-4-.8-.8-2.4-.8-4 0-6.4 0-.8 2.4-.8 4-.8h59.6c7.2 0 5.6 0 5.6-5.6v-53.6c0-6.4 1.6-5.6-5.6-5.6H21.7c-4 0-6.4-4-4-7.2 0-.8 2.4-1.6 3.2-1.6h71.7c2.4 0 3.2.8 3.2 3.2v146.5c0 4.8 0 4.8-4.8 4.8-23.4 0-46.7 0-69.3.8-3.2 0-4.8-1.6-4.8-4.8 0-3.2 1.6-4 4.8-4h60.4c4 0 5.6-.8 5.6-4.8-.8-18.4-.8-36.8-.8-55.2v-4.9z" class="st0"/><path d="M71.7 181.5c4 0 4.8 0 6.4 1.6 1.6 1.6 1.6 8 1.6 8-8.8-1.6-8-9.6-8-9.6m-13.6 0l-8.8 3.2h-21l-4-3.2h33.8zM8.2 216.8H6.6v-32.1h1.6v32.1zm20.1 0h20.9L58 220H24.3l4-3.2zm43.4 4s-.8-8.8 8-11.2c0 0 0 7.2-1.6 8.8-1.5 1.6-2.3 2.4-6.4 2.4m-46.6-32.1v24.9l-7.2 3.2v-31.3l7.2 3.2zm35.4-4s3.2 3.2 3.2 16-3.2 16-3.2 16l-12.9-3.2s4-13.6 0-24.9l12.9-3.9zm0-10.4c-.8 0-1.6.8-1.6 2.4v3.2H9.1c-4 0-7.2 3.2-7.2 7.2v27.3c0 4 3.2 7.2 7.2 7.2h49.8v4c0 .8.8 1.6 1.6 1.6s1.6-.8 1.6-1.6v-4h11.3c4 0 7.2-3.2 7.2-7.2v-27.3c0-4-3.2-7.2-7.2-7.2H62.1v-3.2c0-1.6-.8-2.4-1.6-2.4" class="st5"/><path d="M109.4 220.6c-4 0-4-.8-5.6-1.6-1.6-1.6-1.6-8.8-1.6-8.8 8.8 2.3 7.2 10.4 7.2 10.4m14.4 0l8-4h20.9l4.8 4h-33.7zm49.1-36.2h2.4v33h-2.4v-33zm-20.1.8h-20.9l-8-3.2h33.8l-4.9 3.2zm-42.6-4s.8 8.8-8 10.5c0 0-.8-6.4 1.6-8.1 1.5-1.6 1.5-2.4 6.4-2.4m45.8 32.1v-25.7l8-3.2v32.2l-8-3.3zm-34.6 4.1s-3.2-3.2-3.2-16.1c0-13.7 3.2-16.9 3.2-16.9l12.9 4s-4 13.7 0 24.9l-12.9 4.1zm0 9.6c.8 0 1.6-.8 1.6-1.6v-3.2h49c4.8 0 8-3.2 8-7.2v-27.4c0-4-3.2-8-8-8h-49v-3.2c0-.8-.8-1.6-1.6-1.6s-1.6.8-1.6 1.6v3.2h-11.3c-4 0-7.2 4-7.2 8V215c0 4 3.2 7.2 7.2 7.2h11.3v3.2c0 .8.8 1.6 1.6 1.6" class="st6"/><path d="M161.1 439.2c-3.7 1.6-4 .8-6.1 0-1.8-.1-4.6-6.7-4.6-6.7 9.1-1.3 10.7 6.7 10.7 6.7m13.4-5.7l5.8-6.8 19.2-8.2 6 1.8-31 13.2zm43.8-22.1l-12.8-30.2 2.2-.9 12.8 30.2-2.2.9zm-31-21.5l-19.2 8.2-8.7.2 31.1-13.2-3.2 4.8zm-40.7 12.9s4.2 7.8-3.3 12.7c0 0-3.2-5.6-1.6-8 .8-2 .4-2.8 4.9-4.7m54.6 11.5l-10-23.5 6.1-6.1 12.5 29.4-8.6.2zM171 431.5s-4.2-1.7-9.2-13.4c-5.3-12.5-3.6-16.7-3.6-16.7l13.4-1.3s1.6 14.1 9.7 22.8l-10.3 8.6zm3.8 8.9c.7-.3 1.2-1.4.8-2.1l-1.3-2.9 45.1-19.2c4.4-1.9 6.2-6.1 4.6-9.8l-10.6-25c-1.6-3.7-6.1-6.1-10.5-4.2l-45.1 19.2-1.3-2.9c-.3-.7-1.4-1.2-2.1-.8-.8.3-1.2 1.4-.9 2.1l1.3 2.9-10.4 4.4c-3.7 1.6-5.1 6.5-3.5 10.2l10.6 25c1.6 3.7 5.8 5.3 9.5 3.8l10.4-4.4 1.3 3c.3.6 1.3 1 2.1.7" class="st7"/></svg>