<svg xmlns="http://www.w3.org/2000/svg" viewBox="0 0 70 70"><defs><style>.a{fill:#f79030;}.b{fill:#364a6c;}</style></defs><path d="M33.2 40.36V36.5H32l-2.83-5.27H11.52L8.7 36.5H4.4v3.33H7V50.3h7v-2.45h.28v.34h12.14v-.37h.28v2.45h7.08v-9.95h-.58zm-19.3 2.9H9.8V42.1h4.1v1.17zm-2.8-5.45l1.9-4.25h14.7l1.93 4.28H11.1zm19.84 5.48h-4.1V42.1h4.1v1.17z" class="a"/><path d="M40 31.6l.18-.34V29.2h4.72v1.53h1.6v-3.66h2.3V25h-3.64l-2.4-4.5-.18-.3h-15.5l-.16.3-2.4 4.5h-3.7v2h2.3v3.6h1.6v-1.46h4.73v1.54h.08l.3.57.17.35 1.65 3.08h6.7zm-14.35-5.37l2.2-4.87h14L44 26.23H25.65z" class="a"/><path d="M36.28 50.3V39.82h-2.54v-3.3H38l2.83-5.3h17.7l2.84 5.3h4.22v3.3h-2.5V50.3H56v-2.45h-.25v.34h-12.1v-.37h-.3v2.45H36.3zm24-7v-1.2h-4.13v1.17h4.12zm-17 0v-1.2h-4.16v1.17h4.12zM59 37.82l-2-4.3H42.35l-1.93 4.3H59zm-35.86-3.7v2.48h5.36l-1.13-2.53h-4.23v.05" class="a"/><path d="M35 70a35 35 0 1 1 35-35 35 35 0 0 1-35 35zm0-65.68A30.68 30.68 0 1 0 65.68 35 30.72 30.72 0 0 0 35 4.32z" class="b"/></svg>