<svg xmlns="http://www.w3.org/2000/svg" viewBox="0 0 70 70"><defs><style>.a{fill:#364a6c;}.b{fill:#f79030;}</style></defs><path d="M35 70a35 35 0 1 1 35-35 35 35 0 0 1-35 35zm0-65.68A30.68 30.68 0 1 0 65.68 35 30.72 30.72 0 0 0 35 4.32z" class="a"/><path d="M32.2 30.7a1.1 1.1 0 0 1-.3.6 9 9 0 0 1-7.25 3.22 9.7 9.7 0 0 1-7.5-3.12 10.76 10.76 0 0 1-2.8-7.6 11 11 0 0 1 2.75-7.57A9.25 9.25 0 0 1 24.37 13a9.8 9.8 0 0 1 7.52 2.9.9.9 0 0 1 .3.58 9.12 9.12 0 0 1-1 2.06 11.87 11.87 0 0 1-1.3 2 .4.4 0 0 1-.3.12 3.93 3.93 0 0 1-.78-.6 7.83 7.83 0 0 0-1.6-1.06 5.36 5.36 0 0 0-2.42-.6 4.25 4.25 0 0 0-3.47 1.6 5.7 5.7 0 0 0-1.2 3.7 5.8 5.8 0 0 0 1.2 3.72 4.22 4.22 0 0 0 3.5 1.58 5.56 5.56 0 0 0 2.43-.56 7.53 7.53 0 0 0 1.54-1 3.77 3.77 0 0 1 .75-.56.4.4 0 0 1 .3.16q.24.26 1.3 1.83a10.66 10.66 0 0 1 1.06 1.82z" class="b"/><path d="M52.85 23.75a10.67 10.67 0 0 1-2.95 7.66 10.1 10.1 0 0 1-7.6 3.17 10.06 10.06 0 0 1-7.6-3.16 10.6 10.6 0 0 1-3-7.63 10.67 10.67 0 0 1 3-7.66 10 10 0 0 1 7.6-3.2 10.05 10.05 0 0 1 7.57 3.2 10.7 10.7 0 0 1 2.98 7.66zm-5.6 0A5.47 5.47 0 0 0 45.88 20a4.7 4.7 0 0 0-7.15.06 5.76 5.76 0 0 0-.1 7.44 4.8 4.8 0 0 0 7.2-.1 5.4 5.4 0 0 0 1.4-3.68zm5.05 13.53v-1.96q.77-.58 1.4-1.13 1-.9 1.82-1.7a15.37 15.37 0 0 0 1.06-1.17 2.15 2.15 0 0 0 .42-.5.8.8 0 0 0 .06-.3.63.63 0 0 0-.06-.36.74.74 0 0 0-.3-.26 2 2 0 0 0-.5-.16 3.18 3.18 0 0 0-.65-.06 7.38 7.38 0 0 0-1.07.1q-.56.06-1.54.3l.2-1q.06-.3.18-1.14a22.9 22.9 0 0 1 3.58-.3 7.9 7.9 0 0 1 1.46.13 4 4 0 0 1 1.25.44 2.37 2.37 0 0 1 .87.74 1.6 1.6 0 0 1 .28.9 2.5 2.5 0 0 1-.08.63 3.3 3.3 0 0 1-.3.7 6.2 6.2 0 0 1-.68 1 19.9 19.9 0 0 1-1.4 1.5q-.76.74-1.8 1.65h3.07l.8-.06q0 .3-.06.8t-.1 1.23h-7.9z" class="b"/><circle cx="13.12" cy="47.71" r="1.86" class="b"/><circle cx="16.55" cy="52.14" r="1.34" class="b"/><circle cx="11.12" cy="42.14" r="2.29" class="b"/><circle cx="12.24" cy="33.75" r="2.88" class="b"/><path d="M27.33 59.4H20.6V47.64h-2.84v-2.5h4.56l3-5.53.2-.35h19.1l.22.38 3 5.54h4.48v2.5h-2.85V59.4h-6.73v-2.75h-1.52V57H28.85v-.35h-1.52v2.75zM23.7 46.6h22.67l-2.7-6H26.4l-2.7 6zm-1.12 3.58v2.52h5.82v-2.5h-5.82zm19.1 0v2.52h5.8v-2.5h-5.8zm5.44 4.3H43v1h4.1v-1zM23 54.5v1h4v-1h-4z" class="a"/></svg>