<svg xmlns="http://www.w3.org/2000/svg" viewBox="0 0 70 70"><defs><style>.a{fill:#f79030;}.b{fill:#364a6c;}</style></defs><path d="M29.93 60.9l6.42-25.7-6.65 8.35 2.92-12.53-13.88 24.13 5.5-23.64-4.3 6.07-17.42-.2.04-3.24 15.72.2 12.82-18-4.24 18.2L40.74 10.4 36.1 30.3l7-8.76-4.02 16.1 10.1-18.3-2.5 18.42 3.45-4.1h16.95v3.25H51.64l-9.67 11.5 1.68-12.3-13.72 24.8" class="a"/><path d="M35 70a35 35 0 1 1 35-35 35 35 0 0 1-35 35zm0-65.68A30.68 30.68 0 1 0 65.68 35 30.72 30.72 0 0 0 35 4.32z" class="b"/></svg>